<?xml version="1.0" encoding="iso-8859-1"?>
<!-- Generator: Adobe Illustrator 19.0.0, SVG Export Plug-In . SVG Version: 6.00 Build 0)  -->
<svg version="1.1" id="Capa_1" xmlns="http://www.w3.org/2000/svg" xmlns:xlink="http://www.w3.org/1999/xlink" x="0px" y="0px"
	 viewBox="0 0 512 512" style="enable-background:new 0 0 512 512;" xml:space="preserve">
<g>
	<g>
		<path d="M452,121V31H60C26.916,31,0,57.916,0,91v315c0,41.355,33.645,75,75,75h437V121H452z M60,61h362v60H60
			c-16.542,0-30-13.458-30-30S43.458,61,60,61z M482,361h-75c-24.813,0-45-20.187-45-45s20.187-45,45-45h75V361z M482,241h-75
			c-41.355,0-75,33.645-75,75c0,41.355,33.645,75,75,75h75v60H75c-24.813,0-45-20.187-45-45V142.928
			C38.833,148.051,49.075,151,60,151c21.948,0,389.628,0,422,0V241z"/>
	</g>
</g>
<g>
	<g>
		<rect x="392" y="301" width="30" height="30"/>
	</g>
</g>
<g>
</g>
<g>
</g>
<g>
</g>
<g>
</g>
<g>
</g>
<g>
</g>
<g>
</g>
<g>
</g>
<g>
</g>
<g>
</g>
<g>
</g>
<g>
</g>
<g>
</g>
<g>
</g>
<g>
</g>
</svg>
