<?xml version="1.0" standalone="no"?>
<!DOCTYPE svg PUBLIC "-//W3C//DTD SVG 1.1//EN" "http://www.w3.org/Graphics/SVG/1.1/DTD/svg11.dtd">
<svg xmlns="http://www.w3.org/2000/svg">
<metadata>Generated by Fontastic.me</metadata>
<defs>
<font id="e-commerce" horiz-adv-x="512">
<font-face font-family="e-commerce" units-per-em="512" ascent="480" descent="-32"/>
<missing-glyph horiz-adv-x="512" />

<glyph glyph-name="badge" unicode="&#98;" d="M341 216c4 0 7 3 8 6l14 43 36 26c3 3 4 6 3 10l-14 43 14 42c1 4 0 8-3 10l-36 26-14 43c-1 4-4 6-8 6l-44 0-36 26c-3 3-7 3-10 0l-36-26-44 0c-4 0-7-2-8-6l-14-43-35-26c-3-2-5-6-4-10l14-42-14-43c-1-4 1-7 4-10l35-26 14-43c1-3 4-6 8-6l44 0 36-26c2-1 3-2 5-2 2 0 4 1 5 2l36 26 44 0z m-52 16l-33-25-33 25c-1 1-3 1-5 1l-41 0-12 40c-1 1-2 3-3 4l-33 24 12 40c1 2 1 4 0 5l-12 40 33 24c1 1 2 3 3 4l12 40 41 0c2 0 4 1 5 2l33 24 33-24c2-1 3-2 5-2l41 0 13-40c0-1 1-3 3-4l33-24-13-40c0-1 0-3 0-5l13-40-33-24c-2-1-3-3-3-4l-13-40-41 0c-2 0-3 0-5-1z m-77-53c-5 2-10 0-11-5l-49-127-17 49c0 2-2 4-5 5-2 1-5 1-7-1l-44-27 43 121c1 4-1 9-5 11-5 1-10-1-11-5l-51-144c-1-3 0-7 2-9 3-3 7-3 10-1l56 34 20-61c1-4 5-6 8-6 0 0 0 0 0 0 4 0 7 2 8 5l58 150c1 5-1 10-5 11z m245-123l-51 144c-1 4-6 6-11 5-4-2-6-7-5-11l43-121-44 27c-2 2-5 2-7 1-3-1-5-3-5-5l-17-49-50 130c-2 5-6 7-11 5-4-1-6-6-5-11l59-153c1-3 4-5 8-5 0 0 0 0 0 0 3 0 6 2 8 6l20 61 56-34c3-2 7-2 10 1 2 2 3 6 2 9z"/>
<glyph glyph-name="headset" unicode="&#106;" d="M463 230c-5 0-10-5-10-10l0-82c0-10-3-20-9-28-12-16-49-54-139-54-5 13-25 23-47 23-28 0-49-14-49-31 0-17 21-31 49-31 20 0 38 8 46 19l0 0c100 0 142 43 156 62 8 12 13 26 13 40l0 82c0 6-4 10-10 10z m49-22c0 26-12 50-30 65-2 123-103 222-226 222-123 0-224-99-226-222-18-15-30-39-30-65 0-46 38-84 84-84 6 0 11 4 11 10l0 148c0 6-5 11-11 11-11 0-23-3-33-7 8 106 97 189 205 189 108 0 197-83 205-189-10 4-22 6-34 6-5 0-10-4-10-10l0-148c0-6 5-10 10-10 3-1 6 9 6 14l0 82c0 17 13 30 30 30 17 0 30-13 30-30l0-65c12 14 19 33 19 53z"/>
<glyph glyph-name="mail-1" unicode="&#108;" d="M415 157c-2 0-5 1-6 2l-95 89c-3 3-4 9 0 12 3 3 8 3 11 0l95-89c4-3 4-8 1-12-2-1-4-2-6-2z m-318 0c-2 0-4 1-6 2-3 4-3 9 1 12l95 89c3 3 8 3 11 0 4-3 3-9 0-12l-95-89c-1-1-4-2-6-2z m374-83l-430 0c-22 0-41 19-41 41l0 282c0 22 19 41 41 41l430 0c22 0 41-19 41-41l0-282c0-22-19-41-41-41z m-430 347c-13 0-24-11-24-24l0-282c0-13 11-24 24-24l430 0c13 0 24 11 24 24l0 282c0 13-11 24-24 24z m215-206c-11 0-22 3-30 10l-212 185c-4 3-4 9-1 12 3 3 8 4 12 1l212-185c10-9 28-9 38 0l212 185c4 3 9 2 12-1 3-4 2-9-1-12l-212-185c-8-7-19-10-30-10z"/>
<glyph glyph-name="marker" unicode="&#109;" d="M258 400c-36 0-66-30-66-66 0-36 30-65 66-65 36 0 65 29 65 65 0 36-29 66-65 66z m0-112c-26 0-47 21-47 46 0 26 21 47 47 47 25 0 46-21 46-47 0-25-21-46-46-46z m125 171c-34 34-79 53-127 53-48 0-93-19-127-53-62-62-70-180-17-252l144-207 143 207c54 72 46 190-16 252z m1-241l-128-185-128 185c-49 65-42 172 14 228 31 31 71 47 114 47 43 0 83-16 114-47 56-56 63-163 14-228z"/>
<glyph glyph-name="phone-1" unicode="&#113;" d="M365 0c-19 0-41 5-66 14-54 21-114 61-167 114-53 53-93 113-114 167-19 50-19 90 0 109 3 3 5 5 8 8 17 18 37 38 62 37 17 0 34-11 52-33 51-64 28-87 1-113l-5-5c-4-4-12-24 65-101 25-25 46-44 63-55 11-7 30-18 38-10l5 5c27 27 49 50 113-1 22-18 33-35 33-52 1-26-19-45-37-62-3-3-6-5-8-8-9-9-24-14-43-14z m-279 434c-18 0-35-17-49-32-3-3-6-6-8-9-14-14-13-50 3-93 20-52 59-109 111-161 52-52 109-91 161-111 43-16 79-17 93-3 3 2 6 5 9 8 15 15 33 32 32 50 0 13-10 27-27 41-54 43-68 28-93 2l-5-4c-12-12-31-10-57 7-18 12-40 31-66 57-64 64-84 103-64 123l4 5c25 25 41 39-2 93-15 17-28 27-41 27 0 0-1 0-1 0z m329-312c-2 0-4 1-6 3-2 4-1 8 2 11 16 11 29 25 41 40 27 35 41 77 41 121 0 110-90 200-200 200-33 0-66-9-95-24-4-2-8-1-10 3-2 3-1 8 3 10 31 17 66 26 102 26 119 0 215-96 215-215 0-47-15-92-44-130-12-16-27-31-44-43-2-1-3-2-5-2z m-164 257c9 3 18 4 27 4 24 0 39-12 39-32 0-12-6-20-20-29l-27-18c-8-6-12-15-12-24l55 0c2 0 2-1 2-2l0-13c0-1 0-2-2-2l-72 0c-1 0-2 1-2 2l0 8c0 21 7 36 22 46l27 17c7 5 10 9 10 15 0 9-8 15-20 15-7 0-15-1-21-3l-10-3c-1-1-2 0-2 1l-5 12c0 1 0 2 2 3z m171-84c0-1-1-2-2-2l-11 0 0-28c0-1 0-2-1-2l-16 0c-1 0-2 1-2 2l0 28-56 0c-2 0-2 1-2 2l0 14c0 1 0 2 1 3 4 5 8 9 12 15l31 40c3 5 6 9 9 13 0 1 1 2 2 2l21 0c1 0 1-1 1-2l0-70 11 0c1 0 2-1 2-2l0-13z m-32 45c0 5 1 10 1 16 1 2-1 3-2 1l-28-35c-2-3-5-7-7-9-2-2-1-3 0-3l36 0z"/>
<glyph glyph-name="price-tag" unicode="&#119;" d="M505 509c-3 4-8 4-12 0l-31-31-199 0-250-252c-6-6-9-13-9-21 0-8 3-16 9-22l175-174c6-6 13-9 21-9 8 0 15 3 21 9l244 250 0 207 31 31c4 4 4 9 0 12z m-48-243l-239-245c-5-5-13-5-18 0l-175 175c-2 2-4 5-4 9 0 3 2 6 4 9l245 247 174 0-41-41c-7 4-15 7-23 7-24 0-43-19-43-43 0-24 19-43 43-43 23 0 42 19 42 43 0 9-2 17-7 23l42 42z m-52 118c0-14-11-26-25-26-14 0-26 12-26 26 0 14 12 26 26 26 4 0 7-1 11-3l-17-17c-4-3-4-9 0-12 1-2 4-3 6-3 2 0 4 1 6 3l17 17c1-3 2-7 2-11z m-60-52c3 3 3 8 0 12-3 3-9 3-12 0l-7-7c-15 13-34 19-54 17-14-1-26-8-35-19-9-11-13-26-12-40l7-52-76-76c-18 23-16 56 5 78 3 3 3 8 0 12-3 3-9 3-12 0-28-28-30-73-6-103l-9-9c-4-4-4-9 0-12 1-2 4-3 6-3 2 0 4 1 6 3l9 9c14-11 31-17 48-17 3 0 5 1 7 1 14 1 26 8 35 18 9 12 13 26 11 41l-6 52 76 76c18-23 16-57-5-78-4-3-4-9 0-12 3-3 8-3 12 0 28 28 30 72 5 102z m-106-149c2-10-1-20-7-28-6-7-15-12-24-12-14-1-29 3-40 11l67 67z m3 114c-1 10 2 20 8 27 6 8 14 12 23 13 15 1 30-3 41-12l-67-67z"/>
<glyph glyph-name="replay-arrow" unicode="&#120;" d="M512 307l-10 10-46-46c-8 119-107 213-228 213-126 0-228-102-228-228 0-126 102-228 228-228 67 0 130 29 173 79l-11 10c-41-47-100-75-162-75-117 0-213 96-213 214 0 118 96 214 213 214 112 0 205-87 213-197l-39 39-11-10 53-53 10 0z"/>
<glyph glyph-name="shirt" unicode="&#121;" d="M510 363l-66 80c-25 30-62 47-101 47l-174 0c-39 0-76-17-101-47l-66-80c-2-2-2-6-2-9 1-3 3-5 6-7l95-44 0-271c0-5 5-10 10-10l292 0c5 0 10 5 10 10l0 271 93 44c3 2 5 4 6 7 0 3 0 7-2 9z m-199 107c-6-26-28-44-55-44-27 0-49 18-55 44z m102-144l0 10c0 5-5 10-10 10-6 0-11-5-11-10l0-294-270 0 0 294c0 5-5 10-11 10-5 0-10-5-10-10l0-10-75 34 58 70c21 25 52 40 85 40l12 0 0 0c2-17 10-31 22-43 14-14 33-22 53-22 20 0 39 8 53 22 12 12 20 26 22 43l0 0 12 0c33 0 64-15 85-40l58-70z m-265-95c-5 0-10-5-10-11l0-154c0-5 5-10 10-10 6 0 11 5 11 10l0 154c0 6-5 11-11 11z m0 60c-5 0-10-5-10-10l0-22c0-6 5-11 10-11 6 0 11 5 11 11l0 22c0 5-5 10-11 10z"/>
<glyph glyph-name="settings" unicode="&#66;" d="M504 289l-29 6c-18 3-32 15-39 32-6 16-4 35 7 49l18 25c3 4 3 9-1 13l-40 40c-3 3-8 3-12 1l-25-17c-14-10-33-12-49-5-17 8-28 22-31 40l-4 31c-1 5-5 8-10 8l-57 0c-4 0-8-3-9-8l-7-38c-4-17-15-31-31-38-16-7-35-5-49 5l-32 22c-4 2-9 2-12-1l-40-40c-4-4-4-9-1-13l18-25c11-15 13-33 7-49-7-17-21-29-39-32l-29-6c-5-1-8-5-8-9l0-57c0-5 3-9 8-10l31-4c18-3 32-14 40-31 7-16 5-35-5-49l-17-25c-2-4-2-9 1-12l40-40c4-4 9-4 13-1l25 18c14 11 33 13 49 7 17-7 29-21 32-39l6-29c1-5 5-8 9-8l57 0c5 0 9 3 10 8l3 22c3 18 14 33 31 40 17 7 36 4 50-6l18-13c4-3 9-3 13 1l40 40c3 3 3 8 1 12l-17 25c-10 15-12 33-5 49 8 17 22 28 40 31l31 4c5 1 8 5 8 10l0 57c0 4-3 8-8 9z m-11-58l-23-4c-24-3-44-19-54-41-10-22-7-48 6-68l13-18-29-29-11 8c-20 15-46 18-69 8-23-9-39-30-43-54l-2-14-41 0-4 22c-5 24-21 43-44 52-22 9-47 6-67-9l-19-13-29 29 13 18c13 20 16 46 6 68-10 22-30 38-54 41l-23 4 0 41 22 4c24 5 43 21 52 44 9 22 6 47-9 67l-13 19 29 29 25-18c20-13 45-16 67-6 22 9 38 28 42 51l6 31 41 0 4-23c3-24 19-44 41-54 22-10 48-7 68 6l18 13 29-29-13-19c-15-20-18-45-9-67 9-23 28-39 52-44l22-4z m-232 120c-55 0-100-45-100-100 0-55 45-99 100-99 55 0 99 44 99 99 0 55-44 100-99 100z m0-180c-45 0-81 36-81 80 0 45 36 81 81 81 44 0 80-36 80-81 0-44-36-80-80-80z m0 132c-29 0-52-23-52-52 0-28 23-52 52-52 29 0 52 24 52 52 0 29-23 52-52 52z m0-85c-19 0-33 15-33 33 0 19 14 33 33 33 18 0 33-14 33-33 0-18-15-33-33-33z"/>
<glyph glyph-name="shopping-bag" unicode="&#67;" d="M465 414l-103-9c-12 43-46 76-86 84-15 12-33 20-52 22l0 1-14 0 0-1c-65-7-116-61-118-128l-85-7 53-327 302-49 72 36 71 330z m-117-10l-21-2c-4 24-13 45-26 63 21-13 38-34 47-61z m-78 72c22-17 37-44 43-75l-152-12c10 48 51 85 101 88 3 0 6-1 8-1z m-53 21c11 0 21-3 31-7-52-9-93-50-102-102l-40-4c3 61 51 110 111 113z m149-478l-5 1 97 383 6-1z"/>
<glyph glyph-name="cart-1" unicode="&#68;" d="M124 44c0-24 20-44 43-44 22 0 42 20 42 44 0 24-19 43-42 43-23 0-43-19-43-43z m22 0c0 12 10 22 21 22 11 0 20-10 20-22 0-12-8-22-20-22-11 0-21 10-21 22z m210 0c0-24 19-44 43-44 22 0 42 20 42 44 0 24-19 43-42 43-23 0-43-19-43-43z m22 0c0 12 9 22 21 22 10 0 20-10 20-22 0-12-8-22-20-22-11 0-21 10-21 22z m-314 468l-61 0 0-22 44 0 77-299 297 0c18 0 33-16 33-35 0-20-14-35-33-35l-296 0 0-21 296 0c31 0 55 25 55 57 0 29-20 51-46 55l79 233-428 0z m77-300l-54 212 391 0-71-212z m207 160l22 0 0-123-22 0z m-77 0l22 0 0-123-22 0z m-77 0l22 0 0-123-22 0z"/>
<glyph glyph-name="shirt-and-tie" unicode="&#105;" d="M284 380c3 1 5 2 6 5l12 26 11-26c1-3 4-5 7-5 1 0 2 0 3 0l89 34c2 1 26 11 27 13 1 2 1 4 0 7l-29 73c-1 3-5 5-9 5 0 0 0 0-1 0l-288 0c0 0-1 0-1 0-4 0-7-2-9-5l-29-73c-1-2-1-5 0-7 1-2 3-3 5-4l22-9 89-34c1 0 2 0 3 0 3 0 6 2 8 5l10 25 11-25c1-3 4-5 7-5l1 0-40-330c-1-3 1-6 3-7l59-41c2-1 3-2 5-2 2 0 3 1 5 2l60 41c3 1 4 4 3 7z m137 55l-96-37-23 58 96 37z m-63 60l-70-27c0 0 0 0 0 0l-64 0c0 0 0 0 0 0l-70 27z m-170-97l-96 37 22 58 97-37z m30 33l9 21 59 0 8-20-17-36-43 0z m38-413l-50 35 39 317 25-12 38-305z"/>
<glyph glyph-name="like" unicode="&#122;" d="M511 352c-7 82-66 142-138 142-49 0-93-26-118-68-25 42-68 68-116 68-72 0-131-60-138-142-1-4-3-23 4-54 11-45 35-86 71-118l178-162 182 162c36 32 60 73 71 118 7 31 5 50 4 54z m-23-49c-10-41-33-79-65-109l-168-150-166 150c-32 30-55 68-65 109-7 29-4 46-4 46l0 1c7 72 57 124 119 124 47 0 87-28 106-74l10-21 9 21c19 45 61 74 109 74 62 0 112-52 119-125 0 0 3-17-4-46z"/>
<glyph glyph-name="expand" unicode="&#69;" d="M502 377c6 0 10 4 10 9l0 116c0 2 0 3-1 4-1 2-3 4-5 5-1 1-2 1-4 1l-116 0c-5 0-9-4-9-10 0-5 4-9 9-9l93 0-223-223-223 223 93 0c5 0 9 4 9 9 0 6-4 10-9 10l-116 0c-2 0-3 0-4-1-2-1-4-3-5-5-1-1-1-2-1-4l0-116c0-5 4-9 10-9 5 0 9 4 9 9l0 93 223-223-223-223 0 93c0 5-4 9-9 9-6 0-10-4-10-9l0-116c0-2 0-3 1-4 1-2 3-4 5-5 1-1 2-1 4-1l116 0c5 0 9 4 9 10 0 5-4 9-9 9l-93 0 223 223 223-223-93 0c-5 0-9-4-9-9 0-6 4-10 9-10l116 0c2 0 3 0 4 1 2 1 4 3 5 5 1 1 1 2 1 4l0 116c0 5-4 9-10 9-5 0-9-4-9-9l0-93-223 223 223 223 0-93c0-5 4-9 9-9z"/>
<glyph glyph-name="quote" unicode="&#70;" d="M0 157c0-68 55-122 122-122 67 0 122 54 122 122 0 67-55 122-122 122-14 0-27-3-39-7 27 157 150 259 36 175-126-92-119-287-119-290 0 0 0 0 0 0z m268 0c0-68 55-122 122-122 67 0 122 54 122 122 0 67-55 122-122 122-14 0-27-3-39-7 27 157 150 259 36 175-126-92-119-287-119-290 0 0 0 0 0 0z"/>
<glyph glyph-name="search" unicode="&#71;" d="M512 40l-151 152c25 33 40 75 40 120 0 110-90 200-201 200-110 0-200-90-200-200 0-111 90-201 200-201 45 0 87 15 120 40l152-151z m-493 272c0 100 81 181 181 181 101 0 182-81 182-181 0-101-81-182-182-182-100 0-181 81-181 182z m321-145c1 2 3 4 5 5 1 2 2 3 4 5l136-137-14-13-136 136c2 2 3 3 5 4z"/>
<glyph glyph-name="truck" unicode="&#72;" d="M4 251c0 0-1 0-1 0l76 87c0 0 0 0 0-1 2 3 5 4 8 4l65 0 0 61c0 6 5 10 10 10l320 0c6 0 10-4 10-10l0-224 9 0c6 0 10-4 10-10 0-6-4-10-10-10l-9 0 0-12c0-6-4-10-10-10l-20 0c-5-21-23-36-45-36-22 0-41 15-45 36l-239 0c-4-21-23-36-45-36-22 0-40 15-45 36l-32 0c-6 0-10 4-10 10l0 98c0 3 1 5 3 7z m413-131c14 0 26 12 26 26 0 14-12 26-26 26-15 0-26-12-26-26 0-14 12-26 26-26z m-244 36l199 0c4 21 23 36 45 36 22 0 40-15 45-36l10 0 0 45-299 0z m0 65l299 0 0 171-299 0z m-96 84l-44-51 44 0z m11-185c14 0 26 12 26 26 0 14-12 26-26 26-14 0-26-12-26-26 0-14 12-26 26-26z m-67 36l22 0c5 21 23 36 45 36 22 0 41-15 45-36l19 0 0 165-55 0 0-77c0-6-4-10-10-10l-66 0z m176 97l85 0c6 0 11-5 11-10 0-6-5-10-11-10l-85 0c-6 0-10 4-10 10 0 5 4 10 10 10z m117 0l6 0c6 0 10-5 10-10 0-6-4-10-10-10l-6 0c-6 0-10 4-10 10 0 5 4 10 10 10z"/>
<glyph glyph-name="close" unicode="&#99;" d="M328 210c-9 8-22 8-31 0-8-9-8-23 1-31l169-167c4-5 10-7 15-7 6 0 11 2 16 7 8 8 8 22-1 30z m-153 95c4-4 10-6 15-6 6 0 11 2 16 6 8 9 8 23 0 31l-163 164c-8 8-21 8-30 0-8-8-8-22 0-31 0 0 162-164 162-164z m327 195c-9 8-22 8-31 0l-454-458c-9-8-9-22 0-30 4-5 10-7 15-7 6 0 11 2 15 7l455 457c8 9 8 22 0 31z"/>
<glyph glyph-name="android-remove" unicode="&#101;" d="M96 277l320 0 0-42-320 0z"/>
<glyph glyph-name="android-add" unicode="&#65;" d="M416 235l-139 0 0-139-42 0 0 139-139 0 0 42 139 0 0 139 42 0 0-139 139 0z"/>
<glyph glyph-name="shipping-truck" unicode="&#73;" d="M190 198c-24 0-43-19-43-43 0-23 19-43 43-43 23 0 42 20 42 43 0 24-19 43-42 43z m0-64c-12 0-22 9-22 21 0 12 10 22 22 22 12 0 21-10 21-22 0-12-9-21-21-21z m322 96l0-46c0-11-9-21-21-21l-22 0c-4 28-27 49-56 49-28 0-52-21-56-49l-111 0c-4 28-28 49-56 49-29 0-52-21-56-49l-28 0c-11 0-20 10-20 21l0 46z m-99-32c-23 0-42-19-42-43 0-23 19-43 42-43 24 0 43 20 43 43 0 24-19 43-43 43z m0-64c-11 0-21 9-21 21 0 12 10 22 21 22 12 0 22-10 22-22 0-12-10-21-22-21z m91 142l-81 80c-5 5-12 8-19 8l-41 0 0 15c0 11-10 21-21 21l-236 0c-11 0-20-10-20-21l0-3-84-10 148-19-150-15 150-21-150-13 86-17 0-40 426 0 0 15c0 7-3 14-8 20z m-35-3l-79 0c-2 0-3 1-3 3l0 61c0 1 1 3 3 3l15 0c1 0 2 0 2-1l64-61c2-2 0-5-2-5z"/>
<glyph glyph-name="coin" unicode="&#74;" d="M487 366c-2 4-7 6-11 4-4-2-6-7-4-11 16-33 23-67 23-103 0-64-24-124-70-169-45-46-105-70-169-70-38 0-74 8-108 25-27 14-51 33-72 56l27-9c4-2 9 1 10 5 2 4 0 9-5 11l-53 17c-3 1-6 1-8-1-2-2-3-5-3-8l9-62c1-4 4-7 8-7 1 0 1 0 2 0 4 1 7 5 7 10l-5 32c21-24 47-44 76-59 36-18 74-27 115-27 68 0 133 27 181 75 48 48 75 113 75 181 0 38-8 75-25 110z m-19 33l-9 62c-1 4-5 7-10 7-4-1-7-5-7-10l5-32c-49 55-117 86-191 86-68 0-133-27-181-75-48-48-75-113-75-181 0-38 8-75 25-110 1-3 4-4 7-4 1 0 3 0 4 0 4 2 6 7 4 11-16 33-23 67-23 103 0 64 24 124 70 169 45 46 105 70 169 70 69 0 134-29 180-81l-27 9c-4 2-9-1-10-5-2-4 0-9 5-11l53-17c1-1 2-1 2-1 2 0 4 1 6 2 2 2 3 5 3 8z m-212 25c-92 0-168-76-168-168 0-92 76-168 168-168 92 0 168 76 168 168 0 92-76 168-168 168z m0-319c-83 0-151 68-151 151 0 83 68 151 151 151 83 0 151-68 151-151 0-83-68-151-151-151z m0 283c-73 0-132-59-132-132 0-73 59-132 132-132 73 0 132 59 132 132 0 73-59 132-132 132z m0-248c-64 0-116 52-116 116 0 64 52 116 116 116 64 0 116-52 116-116 0-64-52-116-116-116z m8 122l0 47c17-2 28-10 28-18 0-5 4-8 8-8 5 0 9 3 9 8 0 18-19 32-45 35l0 10c0 4-3 8-8 8-5 0-8-4-8-8l0-10c-26-3-45-17-45-35 0-24 21-34 45-41l0-47c-17 2-28 10-28 18 0 5-4 8-8 8-5 0-9-3-9-8 0-18 19-32 45-35l0-10c0-4 3-8 8-8 5 0 8 4 8 8l0 10c26 3 45 17 45 35 0 24-21 34-45 41z m-16 5c-21 7-28 14-28 24 0 8 11 16 28 18z m16-64l0 42c21-7 28-14 28-24 0-8-11-16-28-18z"/>
<glyph glyph-name="coin-stack" unicode="&#75;" d="M367 307c-24 0-48-6-68-17l-9 0c0 0 0 0 0 0l0 34c0 1 0 1 0 1l0 0c9 0 17 7 17 17l0 34c0 9-8 16-17 16l0 0c0 0 0 1 0 1l0 34c0 0 0 0 0 1l17 0c9 0 17 7 17 16l0 34c0 9-8 17-17 17l-256 0c-9 0-17-8-17-17l0-34c0 0 0 0 0 0l-17 0c-10 0-17-8-17-17l0-34c0-9 7-17 17-17l0 0c0 0 0 0 0 0l0-34c0-1 0-1 0-1l0 0c-10 0-17-7-17-17l0-34c0-9 7-16 17-16l17 0c0-1 0-1 0-1l0-34c0 0 0 0 0-1l-17 0c-10 0-17-7-17-16l0-34c0-10 7-17 17-17l0 0c0 0 0 0 0-1l0-34c0 0 0 0 0 0l0 0c-10 0-17-8-17-17l0-34c0-9 7-17 17-17l17 0c0 0 0 0 0 0l0-34c0-9 8-17 17-17l256 0c6 0 11 3 14 8 15-5 30-8 46-8 80 0 145 65 145 145 0 80-65 145-145 145z m-77 69c1 0 1 0 1 0l0-34c0-1 0-1-1-1l-256 0c-1 0-1 0-1 1l0 34c0 0 0 0 1 0z m-240 102c0 1 0 1 1 1l256 0c1 0 1 0 1-1l0-34c0 0 0 0-1 0l-256 0c-1 0-1 0-1 0z m-33-86c-1 0-1 1-1 1l0 34c0 0 0 1 1 1l256 0c0 0 1-1 1-1l0-34c0 0-1-1-1-1z m0-102c-1 0-1 0-1 0l0 34c0 1 0 1 1 1l256 0c0 0 1 0 1-1l0-34c0 0-1 0-1 0z m258-16c-12-10-22-22-31-36l-193 0c-1 0-1 1-1 1l0 34c0 0 0 1 1 1z m-258-87c-1 0-1 0-1 1l0 34c0 0 0 0 1 0l219 0c-6-11-9-23-11-35z m208-51l-191 0c-1 0-1 0-1 0l0 34c0 1 0 1 1 1l189 0c-1-3-1-6-1-9 0-9 1-18 3-26z m-208-52c-1 0-1 1-1 1l0 34c0 0 0 1 1 1l212 0c3-13 9-25 16-36z m34-51c-1 0-1 0-1 1l0 34c0 0 0 0 1 0l205 0c0 0 0 0 1 0 12-14 27-26 44-35z m316 0c-71 0-129 58-129 129 0 71 58 129 129 129 71 0 129-58 129-129 0-71-58-129-129-129z m0 240c-61 0-110-50-110-111 0-61 49-111 110-111 61 0 111 50 111 111 0 61-50 111-111 111z m0-206c-52 0-94 43-94 95 0 52 42 95 94 95 52 0 95-43 95-95 0-52-43-95-95-95z m8 101l0 37c11-3 18-9 18-14 0-5 4-8 8-8 5 0 8 3 8 8 0 15-14 27-34 30l0 1c0 4-3 8-8 8-4 0-8-4-8-8l0-1c-20-3-34-15-34-30 0-22 19-30 34-35l0-37c-11 2-18 9-18 14 0 5-4 8-8 8-4 0-8-3-8-8 0-15 14-27 34-30l0-1c0-4 4-8 8-8 5 0 8 4 8 8l0 1c20 3 34 15 34 30 0 21-18 30-34 35z m-16 5c-14 5-18 10-18 18 0 5 7 11 18 14z m16-54l0 32c14-5 18-10 18-18 0-5-7-12-18-14z"/>
<glyph glyph-name="coins" unicode="&#76;" d="M512 333c-1 14-18 26-53 35 1 2 2 5 2 7l0 60 0 0c-3 50-207 51-231 51-23 0-227-1-230-51l0 0 0-60c0-16 21-28 52-38 0-1-1-3-1-4l0 0 0-60c-33-8-50-20-51-34l0 0 0-60c0-11 10-21 27-29-1-1-1-3-1-5l0 0 0-60c0-28 64-46 135-54 0 0 1 0 1 0 0 0 0 0 1 0 13-2 27-3 41-4 0 0 1 0 1 0 0 0 0 0 0 0 18-1 35-1 51-1 16 0 33 0 51 1 0 0 0 0 0 0 1 0 1 0 1 0 14 1 28 2 41 4 1 0 1 0 1 0 0 0 1 0 1 0 71 8 135 26 135 54l0 60 0 0c0 11-9 19-27 27 1 2 2 5 2 7l0 56c30 9 51 22 51 38l0 60z m-69-157l-3-2c-5-4-12-8-22-12l0 41c10 3 19 7 26 12l0-36c0-1-1-2-1-3z m-191-39c-1 0-3 0-4 0-3 0-6 0-9 0l0 42c2 0 5 0 7 0 0 0 1 0 1 0 9 1 18 1 26 1l0-42c-2-1-4-1-5-1-6 0-11 0-16 0z m-37 0c-4 0-8 0-12 0 0 0-1 0-1 0-5 0-10 0-14 1l0 42c8 0 17 0 25-1 1 0 1 0 2 0 2 0 5 0 7 0l0-42c-2 0-3 0-5 0-1 0-2 0-2 0z m-154 19c-1 0-1 0-1 0l0 42c8-3 16-5 25-6l0-42c-7 2-15 3-21 5-1 1-2 1-3 1z m179-71c3 0 5 0 7 0l0-42c-11 0-23 0-34 1l0 42c9 0 17 0 26-1 1 0 1 0 1 0z m33 1c9 0 17 0 26 0l0-42c-11-1-23-1-34-1l0 42c2 0 4 0 7 0 0 0 0 0 1 1z m68 3l0-42c-8-1-16-2-25-2l0 42c8 1 17 2 25 2z m17 2c9 1 18 2 26 4l0-42c-8-2-17-3-26-4z m43 7c9 2 18 4 26 6l0-41c-8-3-16-5-26-7z m-290 0l0-42c-10 2-18 4-26 7l0 41c8-2 17-4 26-6z m17-3c8-2 17-3 26-4l0-42c-9 1-18 2-26 4z m43-6c8 0 17-1 25-2l0-42c-9 0-17 1-25 2z m-22 51c0 0-1 1-2 1-1 0-1 0-2 0l0 42c8-1 17-1 26-2l0-42c-7 0-15 1-22 1z m-21 45l0-42c-9 1-18 2-26 4l0 42c9-2 17-3 26-4z m168-46c-2 0-4 0-6 0l0 42c9 1 17 1 26 2l0-42c-6-1-11-1-16-2-2 0-3 0-4 0z m37 4l0 42c9 1 17 2 25 4l0-42c-8-2-16-3-25-4z m42 49c10 1 18 3 26 6l0-42c-8-2-16-4-26-6z m-116 39c-7 0-13 0-19 0 0 0-1 0-1 0l0 43c8 0 17-1 26-1 0 0 1 0 1 0 2 0 5 0 7 0l0-42c-4 0-8 0-12 0-1 0-2 0-2 0z m-199 122l0 41c8-2 16-4 25-6l0-42c-1 1-2 1-3 1-4 1-9 2-13 3-3 1-6 2-9 3z m155 23c2 0 5 0 7 0l0-43c-12 0-23 0-34 1l0 42c8 0 17 0 25 0 1 0 1 0 2 0z m32 0c9 0 18 0 26 0l0-42c-1 0-3 0-4 0 0 0 0 0-1 0-5-1-11-1-17-1-1 0-2 0-3 0-3 0-6 0-9 0l0 43c2 0 5 0 7 0 0 0 1 0 1 0z m195-5l0 0-4-2c-4-4-11-7-20-10l0 40c10 4 19 8 26 12l0-35c0-2-1-3-2-5z m-109-32l0 42c9 1 17 3 25 4l0-42c-8-1-16-3-25-4z m42 7l0 42c10 2 18 4 26 6l0-41c-8-2-16-5-26-7z m-59 33l0-42c-9-1-17-1-26-2l0 42c9 1 17 2 26 2z m-171-42l0 42c8 0 17-1 26-2l0-42c-9 1-18 1-26 2z m-17 44l0-42c-2 0-3 1-5 1-1 0-2 0-3 0-5 1-10 2-15 3-1 0-2 0-3 0l0 42c9-1 17-3 26-4z m92-148c-1 0-3 0-4 0-5 0-10 1-16 1-1 0-2 1-3 1 0 0-1 0-1 0l0 42c9-1 17-1 26-2l0-43c-1 1-2 1-2 1z m-57 6c-3 1-6 1-9 2l0 42c8-2 16-3 25-4l0-42c-5 0-10 1-15 2 0 0 0 0-1 0z m-26 47l0-42c-10 2-18 4-26 6l0 41c8-2 16-4 26-5z m-43 11l0-41c-14 5-22 11-25 15l-1 1c0 1 0 1 0 1l0 35c7-4 16-8 26-11z m205-24c8 0 17 1 25 1l0-43c-11 0-22 0-34 0l0 42c2 0 5 0 7 0 1 0 1 0 2 0z m110-33c-4 0-8-1-12-1-2-1-4-1-6-1-3-1-5-1-7-1l0 42c9 1 17 2 26 4l0-42c-1 0-1 0-1-1z m-58-7c-3 0-6 0-10 0l0 42c9 1 18 1 26 2l0-42c-5-1-10-1-15-2 0 0-1 0-1 0z m98 16c-5-1-9-2-14-3-2-1-4-1-6-2-1 0-2 0-2 0l0 42c9 1 17 3 25 5l0-41c-1 0-2 0-3-1z m46 83c-1-6-14-13-38-21-30-9-77-17-137-20-3 0-6 0-9 0-3 0-5-1-8-1-7 0-14 0-21 0-8 0-15 0-22 0-3 0-5 1-8 1-3 0-6 0-9 0-60 3-107 11-137 21-24 7-37 14-38 20 0 0 0 0 1 1 0-1 1-1 1-1 4-1 7-1 11-2 17-4 35-7 55-9 0 0 0 0 1 0 0 0 0 0 0 0 13-2 27-3 42-4 0 0 0 0 0 0 0 0 0 0 0 0 11 0 21-1 32-1 7 0 13 0 19 0 5 0 9 0 14 0 62 1 120 8 160 20 1 0 3 1 5 1 1 1 2 1 3 1 3 1 6 2 9 3 1 0 1 1 2 1 2 1 4 2 7 3 0 0 1 0 1 0 3 2 5 3 7 4 1 0 2 1 3 1 1 1 2 2 3 2 0 0 1 1 2 1 38-8 48-17 49-21z m-265 137c141 0 212-22 214-35-1-5-15-13-38-20-30-9-77-18-137-21-3 0-6 0-9 0-3 0-5 0-8 0-7 0-14 0-22 0-7 0-14 0-21 0-3 0-5 0-8 0-3 0-6 0-9 0-60 3-107 12-137 21-24 7-37 15-38 20 2 13 73 35 213 35z m-213-94l0 36c7-4 16-8 26-12l0-41c-17 6-26 13-26 17z m41-118c1 0 1 0 1 0 12-12 36-21 66-28 1 0 1 0 2 0 2-1 4-1 7-2 27-6 60-10 96-12 0 0 0 0 0 0 0 0 0 0 0 0 12-1 24-1 36-1 5-1 10-1 16-1 5 0 12 0 18 1 11 0 22 0 33 1 0 0 0 0 0 0 0 0 0 0 0 0 36 2 70 6 99 12-7-3-15-6-26-9-32-10-82-19-147-21-2 0-4 0-6 0-2 0-4-1-6-1-6 0-11 0-17 0-7 0-14 0-21 1-3 0-5 0-8 0-3 0-6 0-9 0-60 3-107 11-137 21-24 7-37 15-38 20 1 4 10 12 41 19z m-41-78l0 36c7-5 16-9 26-12l0-41-5 2 0 0c-14 5-21 11-21 15z m26-94l0 36c6-5 15-9 25-12l0-41c-16 6-25 13-25 17z m401-17l0 41c10 3 19 7 25 12l0-36c0-4-9-11-25-17z m25 76c-1-5-14-13-37-20-30-10-78-18-137-21-3 0-7 0-10 0-2 0-5 0-7 0-7 0-15-1-22-1-7 0-15 1-22 1-2 0-5 0-7 0-3 0-6 0-10 0-59 3-107 11-137 21-22 7-35 14-37 20 2-1 5-2 8-3 0 0 0 0 1 0 2-1 4-1 7-2 1 0 1-1 2-1 2 0 3-1 5-1 31-8 70-13 113-16 0 0 0 0 0 0 0 0 0 0 0 0 13-1 27-1 41-1 3-1 7-1 10-1 5 0 10 1 15 1 12 0 25 0 37 1 0 0 0 0 0 0 0 0 0 0 0 0 14 1 29 2 42 4 0 0 0 0 0 0 0 0 1 0 1 0 15 2 29 4 43 6 2 1 5 1 8 2 0 0 1 0 2 0 25 5 47 12 62 20 0 1 1 1 2 2 1 0 2 1 3 1 0 1 1 1 2 2 17-6 22-11 22-14z m0 112l0 41c10 3 19 7 26 11l0-35c0-5-9-11-26-17z"/>
<glyph glyph-name="credit-card" unicode="&#77;" d="M476 444l-440 0c-20 0-36-16-36-36l0-304c0-20 16-36 36-36l440 0c20 0 36 16 36 36l0 304c0 20-16 36-36 36z m-450-69c4 0 8 4 8 9l34 0c0-5 4-9 9-9 5 0 8 4 8 9l34 0c0-5 4-9 9-9 5 0 9 4 9 9l34 0c0-5 3-9 8-9 5 0 9 4 9 9l34 0c0-5 4-9 8-9 5 0 9 4 9 9l34 0c0-5 4-9 9-9 4 0 8 4 8 9l34 0c0-5 4-9 9-9 5 0 8 4 8 9l34 0c0-5 4-9 9-9 5 0 9 4 9 9l34 0c0-5 3-9 8-9 5 0 9 4 9 9l34 0c0-5 4-9 8-9 5 0 9 4 9 9l0-51c0 5-4 8-9 8-4 0-8-3-8-8l-34 0c0 5-4 8-9 8-5 0-8-3-8-8l-34 0c0 5-4 8-9 8-5 0-9-3-9-8l-34 0c0 5-3 8-8 8-5 0-9-3-9-8l-34 0c0 5-4 8-8 8-5 0-9-3-9-8l-34 0c0 5-4 8-9 8-4 0-8-3-8-8l-34 0c0 5-4 8-9 8-5 0-8-3-8-8l-34 0c0 5-4 8-9 8-5 0-9-3-9-8l-34 0c0 5-3 8-8 8-5 0-9-3-9-8l-34 0c0 5-4 8-8 8-5 0-9-3-9-8l0 51c0-5 4-9 9-9z m469-271c0-10-9-19-19-19l-440 0c-10 0-19 9-19 19l0 212 478 0z m-478 297l0 7c0 10 9 19 19 19l440 0c10 0 19-9 19-19l0-7z m43-136l77 0c4 0 8 3 8 8 0 5-4 9-8 9l-77 0c-5 0-9-4-9-9 0-5 4-8 9-8z m111 0l76 0c5 0 9 3 9 8 0 5-4 9-9 9l-76 0c-5 0-9-4-9-9 0-5 4-8 9-8z m-111-43l8 0c5 0 9 4 9 8 0 5-4 9-9 9l-8 0c-5 0-9-4-9-9 0-4 4-8 9-8z m59 17l-17 0c-4 0-8-4-8-9 0-4 4-8 8-8l17 0c5 0 9 4 9 8 0 5-4 9-9 9z m35-17l8 0c5 0 9 4 9 8 0 5-4 9-9 9l-8 0c-5 0-9-4-9-9 0-4 4-8 9-8z m59 17l-17 0c-4 0-8-4-8-9 0-4 4-8 8-8l17 0c5 0 9 4 9 8 0 5-4 9-9 9z m28-3c-1-1-2-3-2-6 0-2 1-4 2-6 2-1 4-2 6-2 3 0 5 1 7 2 1 2 2 4 2 6 0 3-1 5-2 6-4 4-9 4-13 0z m-28 122c0-4-3-8-8-8-5 0-9 4-9 8 0 5 4 9 9 9 5 0 8-4 8-9z m52 0c0-4-4-8-9-8-5 0-9 4-9 8 0 5 4 9 9 9 5 0 9-4 9-9z m-103 0c0-4-4-8-8-8-5 0-9 4-9 8 0 5 4 9 9 9 4 0 8-4 8-9z m-102 0c0-4-4-8-9-8-5 0-8 4-8 8 0 5 3 9 8 9 5 0 9-4 9-9z m51 0c0-4-4-8-9-8-4 0-8 4-8 8 0 5 4 9 8 9 5 0 9-4 9-9z m358 0c0-4-3-8-8-8-5 0-9 4-9 8 0 5 4 9 9 9 5 0 8-4 8-9z m-51 0c0-4-4-8-8-8-5 0-9 4-9 8 0 5 4 9 9 9 4 0 8-4 8-9z m-102 0c0-4-4-8-9-8-5 0-8 4-8 8 0 5 3 9 8 9 5 0 9-4 9-9z m51 0c0-4-4-8-9-8-4 0-8 4-8 8 0 5 4 9 8 9 5 0 9-4 9-9z m-17-247c11 0 21 3 30 8 9-5 19-8 30-8 33 0 59 27 59 60 0 33-26 59-59 59-11 0-21-3-30-8-9 5-19 8-30 8-33 0-60-26-60-59 0-33 27-60 60-60z m17 60c0 12 5 22 13 30 8-8 13-18 13-30 0-12-5-23-13-31-8 8-13 19-13 31z m85 0c0-24-19-43-42-43-6 0-11 1-16 3 10 11 16 24 16 40 0 15-6 29-16 39 5 2 10 3 16 3 23 0 42-19 42-42z m-102 42c5 0 10-1 15-3-9-10-15-24-15-39 0-16 6-29 15-40-5-2-10-3-15-3-24 0-43 19-43 43 0 23 19 42 43 42z"/>
<glyph glyph-name="credit-card-1" unicode="&#78;" d="M273 175l136 0c6 0 9 3 9 8l0 77c0 5-3 9-9 9l-136 0c-5 0-9-4-9-9l0-77c0-5 4-8 9-8z m9 77l119 0 0-60-119 0z m-239 34l68 0c5 0 8 3 8 8 0 6-3 9-8 9l-68 0c-5 0-9-3-9-9 0-5 4-8 9-8z m102 0l68 0c5 0 9 3 9 8 0 6-4 9-9 9l-68 0c-5 0-9-3-9-9 0-5 4-8 9-8z m-102-34l111 0c5 0 8 3 8 8 0 5-3 9-8 9l-111 0c-5 0-9-4-9-9 0-5 4-8 9-8z m170 17l-25 0c-5 0-9-4-9-9 0-5 4-8 9-8l25 0c5 0 9 3 9 8 0 5-4 9-9 9z m291 106c-6 7-13 12-23 12l-20 3 0 41c0 19-16 34-34 34l-393 0c-19 0-34-15-34-34l0-273c0-16 10-29 24-33 0-17 13-32 31-34l394-44c1 0 2 0 3 0 17 0 33 13 34 29l26 274c1 8-2 18-8 25z m-487 30l427 0 0-51-427 0z m17 43l393 0c9 0 17-8 17-17l0-9-427 0 0 9c0 9 8 17 17 17z m-17-290l0 179 427 0 0-179c0-9-8-17-17-17l-393 0c-9 0-17 8-17 17z m478 195l-26-274c-1-9-9-16-19-15l-393 44c-8 1-14 8-15 16l385 0c18 0 34 15 34 34l0 216 19-2c5 0 9-3 11-6 3-3 5-8 4-13z"/>
<glyph glyph-name="gift" unicode="&#79;" d="M390 400c2 2 3 5 5 7 5 9 10 25-2 46-15 29-33 43-54 43-24 0-49-20-74-58-3-5-6-10-9-15-3 5-6 10-9 15-25 38-50 58-74 58-21 0-39-14-54-43-12-21-7-37-2-46 2-2 3-5 5-7l-122 0 0-149 32 0 0-235 448 0 0 235 32 0 0 149z m-187-363l-150 0 0 214 150 0z m0 235l-182 0 0 107 182 0z m-38 128c-15 5-25 11-30 18-1 3-5 10 3 25 11 21 23 32 35 32 16 0 36-17 56-49 6-8 11-17 15-25 0 0 0-1-1-1z m123-363l-64 0 0 342 64 0z m-19 363c-1 0-1 1-1 1 4 8 9 17 15 25 20 32 40 49 56 49 12 0 24-11 35-32 8-15 4-22 3-25-5-7-15-13-30-18z m190-363l-150 0 0 214 150 0z m32 235l-182 0 0 107 182 0z"/>
<glyph glyph-name="hand" unicode="&#80;" d="M471 103l-27 54c-2 3-5 5-8 5l-18 0c-1 32-3 142-19 174-18 37-45 72-46 74-1 1-3 2-4 3l-81 27c-1 0-2 0-3 0-18 42-59 72-108 72-64 0-117-52-117-117 0-64 53-117 117-117 11 0 22 2 33 5 4-9 10-18 16-28 13-21 28-45 32-68 8-44 43-87 58-105l-18-12c-4-2-5-8-3-12l36-54c2-3 5-4 8-4 2 0 3 0 5 1l143 90c4 3 6 8 4 12z m-204 254c14-7 32-17 37-22 6-6 6-35 6-48 0-12-5-23-7-24 0 0-4 0-13 12-8 11-25 31-42 46 8 11 15 23 19 36z m-81-29c-6-8-6-18-3-28-8-2-17-4-26-4-54 0-99 45-99 99 0 55 45 99 99 99 55 0 99-44 99-99 0-23-8-45-23-63-9 5-17 9-25 9 0 0-1 0-1 0-9-1-16-5-21-13z m136-307l-27 39 20 13c2 2 4 4 4 7 0 3-1 5-3 7 0 1-52 53-60 103-5 26-20 52-35 75-13 21-27 44-20 53 2 4 4 5 7 5 13 0 42-24 68-59 4-6 17-23 33-18 15 5 19 28 19 41 0 27-1 50-12 61-8 8-34 22-44 27 1 6 2 13 2 20 0 9-1 17-3 25l69-23c6-9 28-39 43-69 14-28 17-136 17-175 0-5 4-9 9-9l21 0 21-42z"/>
<glyph glyph-name="headset-1" unicode="&#81;" d="M256 512c-127 0-229-103-229-229l0-115c0-15 11-26 26-26l9 0 0-1c0-14 12-26 26-26l18 0c14 0 26 12 26 26l0 106c0 14-12 26-26 26l-18 0c-14 0-26-12-26-26l0 0-19 0 0 36c0 117 96 212 213 212 117 0 213-95 213-212l0-36-19 0 0 0c0 14-12 26-26 26l-18 0c-14 0-26-12-26-26l0-106c0-14 12-26 26-26l18 0c14 0 26 12 26 26l0 1 1 0c-4-58-51-104-109-108-3 11-13 18-24 18l-27 0c-9 0-17-8-17-17l0-18c0-9 8-17 17-17l27 0c11 0 21 8 25 18 67 3 121 58 125 125 10 3 17 13 17 25l0 115c0 126-102 229-229 229z m-177-265c0 5 4 10 9 10l18 0c5 0 9-5 9-10l0-106c0-5-4-9-9-9l-18 0c-5 0-9 4-9 9z m-17-17l0-72-9 0c-6 0-10 4-10 10l0 62z m371-89c0-5-4-9-9-9l-18 0c-5 0-9 4-9 9l0 106c0 5 4 10 9 10l18 0c5 0 9-5 9-10z m-115-124l-27 0c0 0 0 0 0 0l0 18c0 0 0 0 0 0l27 0c5 0 9-4 9-9 0-5-4-9-9-9z m151 151c0-6-4-10-10-10l-9 0 0 72 19 0z m-160 43c-9 0-17-7-17-17 0-9 8-17 17-17 10 0 17 8 17 17 0 10-7 17-17 17z m-53 0c-9 0-17-7-17-17 0-9 8-17 17-17 9 0 17 8 17 17 0 10-8 17-17 17z m71 71l-142 0c-19 0-35-16-35-35l0-106c0-19 16-35 35-35l80 0 0-21c0-6 4-11 9-13 2-1 4-1 6-1 4 0 7 1 10 4l31 31 6 0c19 0 35 16 35 35l0 106c0 19-16 35-35 35z m18-141c0-10-8-18-18-18l-9 0c-2 0-4-1-6-3l-30-30 0 24c0 5-4 9-8 9l-89 0c-10 0-18 8-18 18l0 106c0 10 8 18 18 18l142 0c10 0 18-8 18-18z m-142 70c-10 0-17-7-17-17 0-9 7-17 17-17 9 0 17 8 17 17 0 10-8 17-17 17z"/>
<glyph glyph-name="key-chain" unicode="&#82;" d="M511 162l-121 214c-1 1-2 3-4 4l-68 34c-2 1-4 1-6 0-12 27-33 49-67 49-39 0-63-18-77-41-7 1-14 2-21 2-55 0-99-44-99-98 0-25 9-47 24-64l-69-157c-8-20 1-43 21-52l3-1c6-2 11-3 17-3 5 0 9 0 14 2 10 4 18 11 22 21l10 24-3 1c-5 3-7 9-4 14 3 5 9 7 13 4l2-1 13 29-5 2c-5 3-6 9-4 14 3 5 9 7 14 4l3-2 12 28-1 0c-5 3-7 9-4 14 2 5 8 6 13 4l9 20c54 1 97 45 97 99 0 39-24 73-57 89 11 16 28 28 57 28 26 0 40-17 49-38l-36-20c-3-2-5-5-5-8l-3-74c0-2 1-4 1-6l121-213c2-4 5-6 9-6 1 0 3 1 5 2l121 68c2 1 4 4 5 6 0 3 0 5-1 8z m-450-82c-2-5-5-8-10-10-5-2-10-2-15 1l-4 1c-10 4-15 16-10 25l65 150c12-8 25-15 40-18z m164 246c0-44-35-79-78-79-3 0-6 0-9 1l-3 0c-15 3-29 9-40 18-16 15-27 36-27 60 0 43 35 78 79 78 4 0 8 0 12-1-3-7-5-14-6-21-14-3-24-15-24-30 0-17 14-31 31-31 17 0 31 14 31 31 0 13-7 24-18 28 1 6 3 12 5 17 28-12 47-39 47-71z m-65 21c6 0 10 4 10 10 0 1 0 6 1 13 6-4 10-10 10-18 0-12-9-21-21-21-12 0-21 9-21 21 0 9 5 16 12 19-1-5-1-10-1-14 0-6 5-10 10-10z m146-4c0-5 5-10 10-10l0 0c6 0 10 5 10 10 0 4 0 7 0 10 3-2 4-6 4-10 0-7-6-14-14-14-7 0-14 7-14 14 0 4 2 7 4 10 0-6 0-9 0-10z m79-241l-115 203 3 65 27 16c3-9 4-18 5-25-6-4-9-10-9-18 0-11 9-20 20-20 12 0 21 9 21 20 0 8-5 15-12 19-1 9-2 18-5 28l54-27 114-202z"/>
<glyph glyph-name="lock" unicode="&#83;" d="M408 321l0 54c0 75-68 137-152 137-84 0-152-62-152-137 0-6 5-10 10-10 5 0 9 4 9 10 0 65 60 118 133 118 73 0 133-53 133-118l0-53-273 0c-38 0-69-30-69-68l0-185c0-38 31-69 69-69l280 0c38 0 69 31 69 69l0 185c0 34-25 62-57 67z m38-252c0-28-23-50-50-50l-280 0c-27 0-50 22-50 50l0 185c0 27 23 49 50 49l280 0c27 0 50-22 50-49z m-190 178c-21 0-38-17-38-38l0-57c0-21 17-38 38-38 21 0 38 17 38 38l0 57c0 21-17 38-38 38z m19-95c0-11-9-19-19-19-10 0-19 8-19 19l0 57c0 10 9 19 19 19 10 0 19-9 19-19z"/>
<glyph glyph-name="money-bag" unicode="&#84;" d="M297 181c-4 18-21 32-41 32l0 0c-13 0-22 7-25 19-2 10 4 21 15 26 11 4 23 0 30-9 3-4 8-5 11-2 4 3 5 8 2 11-6 9-15 14-25 17l0 27c0 4-3 8-8 8-4 0-8-4-8-8l0-27c-3-1-5-1-8-2-18-8-29-27-24-45 4-19 20-31 40-31l1 0c12 0 22-8 24-19 0-1 0-1 0-1 2-10-4-21-15-26 0 0 0 0 0 0-10-4-23 0-29 9-2 4-8 5-11 2-4-2-5-7-2-11 5-9 14-14 24-17l0-27c0-4 4-8 8-8 5 0 8 4 8 8l0 27c3 0 6 1 8 2 18 8 29 27 25 45z m107 110c-30 63-65 114-66 115-1 2-4 3-6 3l-152 0c-2 0-5-1-6-3-1-1-36-52-66-115-41-85-53-150-36-193 12-30 38-56 76-74 32-15 71-24 107-24 0 0 1 0 2 0 35 0 74 9 106 24 38 18 64 43 77 74 17 43 5 108-36 193z m21-187c-24-57-103-88-168-88-1 0-1 0-2 0-64 0-145 31-168 88-34 86 80 262 98 289l142 0c18-27 132-203 98-289z m-254 344c0-5 4-8 8-8l153 0c4 0 8 3 8 8 0 4-4 8-8 8l-34 0 40 40c3 3 3 8 0 11-3 3-8 3-11 0l-51-50c-1 0-1-1-1-1l-11 0 0 48c0 4-4 8-8 8-5 0-8-4-8-8l0-48-11 0c0 0 0 1-1 1l-50 50c-4 3-9 3-12 0-3-3-3-8 0-11l40-40-35 0c-4 0-8-4-8-8z"/>
<glyph glyph-name="percentage" unicode="&#85;" d="M512 257c0 12-3 24-10 34-6 9-8 19-6 30 2 11 1 23-4 34-5 11-12 21-22 28-9 5-15 14-17 25-3 11-9 22-17 30-8 8-19 14-30 17-11 2-20 8-26 16-7 10-16 17-27 22-11 5-24 6-35 4-11-2-21 0-30 5-10 7-21 10-33 10-12 0-24-4-34-10-9-6-19-8-30-6-11 2-23 1-34-4-11-5-21-12-28-22-5-9-14-15-25-17-11-3-22-9-30-17-8-8-14-19-17-30-2-11-8-20-16-26-10-7-17-16-22-27-5-11-6-24-4-35 2-11 0-21-5-30-7-10-10-21-10-33 0-12 4-24 10-34 6-9 8-19 6-30-2-11-1-23 4-34 5-11 12-21 22-28 9-5 15-14 17-25 3-11 9-22 17-30 8-8 19-14 30-17 11-2 20-8 26-16 7-10 16-17 27-22 11-5 24-6 35-4 11 2 21 0 30-5 10-7 21-10 33-10 12 0 24 4 34 10 9 6 19 8 30 6 11-2 23-1 34 4 11 5 21 12 28 22 5 9 14 15 25 17 11 3 22 9 30 17 8 8 14 19 17 30 2 11 8 20 16 26 10 7 17 16 22 27 5 11 6 24 4 35-2 11 0 21 5 30 7 10 10 21 10 33z m-27-22c-8-13-11-29-8-44 1-8 0-17-3-24-3-7-8-14-14-18-13-9-22-23-25-38-2-8-6-15-12-21-5-5-12-9-19-11-16-4-30-13-38-25-5-7-11-12-19-15-7-3-15-4-23-3-15 3-31 0-44-9-7-4-15-7-23-7-8 0-15 3-22 7-10 6-22 9-33 9-4 0-8 0-11-1-8-1-17 0-24 3-7 3-14 8-18 14-9 13-23 22-38 25-8 2-15 6-21 12-5 5-9 12-11 19-4 16-13 30-25 38-7 5-12 11-15 19-3 7-4 15-3 23 3 15 0 31-9 44-4 7-7 15-7 23 0 8 3 15 7 22 8 13 11 29 8 44-1 8 0 17 3 24 3 7 8 14 14 18 13 9 22 23 25 38 2 8 6 15 12 21 5 5 12 9 19 11 16 4 30 13 38 25 5 7 11 12 19 15 7 3 15 4 23 3 15-3 31 0 44 9 7 4 15 7 23 7 8 0 15-3 22-7 13-8 29-11 44-8 8 1 17 0 24-3 7-3 14-8 18-14 9-13 23-22 38-25 8-2 15-6 21-12 5-5 9-12 11-19 4-16 13-30 25-38 7-5 12-11 15-19 3-7 4-15 3-23-3-15 0-31 9-44 4-7 7-15 7-23 0-8-3-15-7-22z m-260 51l0 47c0 28-18 38-40 38-23 0-41-10-41-38l0-47c0-27 18-37 41-37 22 0 40 10 40 37z m-18 0c0-14-9-21-22-21-14 0-22 7-22 21l0 47c0 14 8 21 22 21 13 0 22-7 22-21z m115-25c-23 0-41-10-41-38l0-47c0-27 18-37 41-37 23 0 41 10 41 37l0 47c0 28-18 38-41 38z m22-85c0-14-8-20-22-20-13 0-22 6-22 20l0 47c0 14 9 21 22 21 14 0 22-7 22-21z m-21 197c0 6-5 10-10 10-4 0-7-2-8-5l-119-234c0-1-1-3-1-4 0-5 5-10 10-10 4 0 8 2 9 5l118 233c1 2 1 3 1 5z"/>
<glyph glyph-name="phone-call" unicode="&#86;" d="M376 181c-10 6-22 8-31 5-7-2-13-6-18-13-8-11-19-23-22-25-20-13-36-11-53 6l-90 90c-1 1-1 1-2 2 0 0 0 0 0 0l-6 6c-17 18-19 33-5 53 3 3 15 14 25 23 6 4 11 10 13 17 2 9 0 20-6 31-2 3-37 63-69 80-17 8-37 5-50-8l-21-21c-43-43-52-92-27-147 9-18 22-36 38-52l175-175c13-14 27-25 42-33 24-13 47-20 70-20 31 0 61 14 87 40l22 22c13 13 16 34 7 50-17 32-76 67-79 69z m59-108l-21-21c-40-40-86-46-138-17-13 7-25 17-37 29l-175 176c-16 15-27 31-34 48-23 47-15 89 23 127l21 21c8 8 20 9 28 4 28-14 63-71 63-72 4-7 5-14 4-19-1-3-3-5-6-7l-1-1c-7-6-25-21-28-26-5-7-9-15-10-22-6 12-11 26-12 41-1 5-5 8-10 7-5-1-8-5-7-9 6-60 52-98 54-100l91-90c0-1 1-2 2-2 0 0 0-1 0-1 1-2 39-39 98-45l1 0c4 0 8 3 9 8 0 5-4 8-8 9-18 2-34 7-47 13 6 2 13 5 20 10 6 3 20 20 26 28l0 1c2 3 4 5 7 6 5 1 12-1 19-4 0 0 58-34 72-63 5-9 4-21-4-29z m-68 439c-80 0-145-65-145-145 0-23 5-46 16-66l-16-68c-1-3 0-7 2-9 2-1 4-2 6-2 1 0 2 0 3 0l63 19c21-12 46-19 71-19 80 0 145 65 145 145 0 80-65 145-145 145z m0-272c-23 0-46 6-66 18-1 1-3 1-4 1-1 0-2-1-3-1l-53-16 14 58c1 1 0 4-1 5-10 19-15 41-15 62 0 71 57 128 128 128 71 0 128-56 128-127 0-71-57-128-128-128z m-60 170l119 0c6 0 9 3 9 8 0 5-3 9-9 9l-119 0c-5 0-9-4-9-9 0-5 4-8 9-8z m137-35l-154 0c-5 0-9-3-9-8 0-5 4-9 9-9l154 0c5 0 8 4 8 9 0 5-3 8-8 8z m-18-51l-119 0c-5 0-9-3-9-8 0-5 4-9 9-9l119 0c6 0 9 4 9 9 0 5-3 8-9 8z"/>
<glyph glyph-name="price" unicode="&#87;" d="M342 275c-6 12-13 21-20 28l15 15-15 14-16-16c-6 3-9 4-10 4-12 4-23 2-34-4-23-14-18-42-14-67 6-29 8-47-8-58-8-5-14-6-21-4-18 6-33 33-37 43-2 6-8 8-13 6-5-2-8-8-6-13 0-1 5-12 13-24 1-3 3-5 5-8l-12-12 15-14 12 12c5-5 11-8 17-10 4-1 8-1 12-1 9 0 18 2 26 8 29 19 23 52 18 79-5 24-7 39 4 45 6 3 11 4 17 3 16-5 30-27 34-35 2-5 9-7 14-5 5 3 7 9 4 14z m60 175c-23 0-41-18-41-41 0-23 18-41 41-41 23 0 41 18 41 41 0 23-18 41-41 41z m0-62c-11 0-21 9-21 21 0 11 10 20 21 20 11 0 21-9 21-20 0-12-10-21-21-21z m103 114c0 6-4 10-10 10 0 0 0 0 0 0l-227-1c-3 0-6-1-7-3l-243-242c-24-24-24-63 1-87l160-161c12-12 27-18 44-18 0 0 0 0 0 0 16 0 32 6 44 18l242 242c2 2 3 5 3 8z m-253-469c-8-8-18-12-29-12 0 0 0 0 0 0-11 0-22 4-29 12l-161 160c-16 16-16 43 0 59l239 239 213 0 6-219z"/>
<glyph glyph-name="price-tag-1" unicode="&#88;" d="M445 170l-49-69-34 27c-3 3-9 3-12-1-3-3-2-9 1-12l42-34c1-1 3-2 5-2 1 0 1 0 1 0 3 1 5 2 6 4l54 77c2 4 2 9-2 12-4 3-10 2-12-2z m-13 60l54 54 0 122-96 96-120 0-7-7-211-211 0 0-52-51 217-218 76 76c13-46 56-81 107-81 62 0 112 51 112 112 0 51-34 94-80 108z m-49 254l86-85 0-108-58-57c-1 0-1 0-2 0-1 0-1 0-2 0-1 0-1 0-2 0-1 0-3 0-5 0-62 0-112-50-112-112 0-1 0-3 0-5 0 0 0-1 0-2 0 0 0-1 0-1 0-1 0-2 1-2l-21-20-192 192 201 200z m-359-251l40 39 192-193-39-39z m376-205c-48 0-87 35-94 81l0 1c0 1 0 2 0 3 0 1 0 2 0 2-1 3-1 5-1 7 0 53 43 95 95 95 2 0 5 0 7 0 1 0 1 0 1 0 2 0 3-1 5-1l0 0c46-6 82-46 82-94 0-52-43-94-95-94z m-34 328c18 0 34 15 34 34 0 19-16 34-34 34-19 0-34-15-34-34 0-19 15-34 34-34z m0 51c9 0 16-8 16-17 0-9-7-17-16-17-10 0-17 8-17 17 0 9 7 17 17 17z"/>
<glyph glyph-name="price-tag-2" unicode="&#89;" d="M443 200c-4 2-9 1-11-3l-98-167c-7-12-23-17-35-10l-19 13c-4 2-9 1-12-3-2-4-1-9 3-12l19-12c7-4 14-6 21-6 15 0 30 8 37 21l98 167c3 4 1 9-3 12z m26 312l-137 0c-26 0-46-8-65-28-4-3-4-9 0-12 3-4 8-4 12 0 16 16 31 23 53 23l137 0c14 0 26-12 26-26l0-136c0-22-7-37-23-54l-254-254c-10-9-27-10-36 0l-157 157c-5 5-8 11-8 18 0 7 3 13 8 18l229 229c4-1 7-2 11-3 34-9 62-19 82-27-4-8-6-16-6-25 0-28 23-51 51-51 28 0 51 23 51 51 0 29-23 52-51 52-5 0-8-4-8-9 0-5 3-8 8-8 19 0 34-16 34-35 0-18-15-34-34-34-19 0-34 16-34 34 0 7 2 13 5 18 15-7 24-13 28-17-2 0-4-1-8-1-5-1-8-5-8-9 1-5 4-8 9-8 0 0 0 0 0 0 6 0 22 2 25 13 8 31-115 66-140 73-38 10-74 17-102 19-35 3-52-1-55-12-2-6-6-21 64-48 4-2 9 0 11 4 1 5-1 10-5 11-34 14-48 23-52 28 11 3 47 2 105-11l-222-222c-8-8-13-18-13-30 0-11 5-22 13-30l157-157c8-8 19-12 30-12 11 0 22 4 30 12l254 254c19 20 28 39 28 66l0 136c0 24-19 43-43 43z m-190-224c-3 3-8 3-12 0l-4-5c-7 4-15 7-24 7-23 0-42-19-42-43 0-12 5-22 9-30 5-7 8-16 8-21 0-14-12-25-26-25-14 0-26 11-26 25 0 5 2 10 5 15 3 3 2 9-2 11-4 3-9 2-12-2-5-7-8-15-8-24 0-9 3-17 8-23l-5-5c-3-3-3-9 0-12 2-2 4-3 6-3 2 0 4 1 6 3l5 5c6-5 14-8 23-8 24 0 43 20 43 43 0 8-4 21-10 30-5 8-7 15-7 21 0 15 11 26 25 26 7 0 13-3 18-7 0 0 0 0 0-1 0 0 1 0 1 0 4-5 7-11 7-18 0-6-3-13-8-18-3-3-3-8 0-12 4-3 9-3 12 0 9 8 13 19 13 30 0 9-3 17-7 24l4 4c4 4 4 9 0 13z"/>
<glyph glyph-name="price-tag-4" unicode="&#90;" d="M496 512l-201 0c-2 0-4-1-5-2l-279-240c-2-1-3-3-3-6 0-2 1-4 2-6l201-197c2-2 4-2 6-2 2 0 4 0 5 1l279 240c2 1 3 3 3 6l0 198c0 4-4 8-8 8z m-8-202l-270-232-190 186 270 232 190 0z m-204 33c0 0 0 1 0 1-21 7-44 4-64-8l-8 8c-3 3-8 3-12 0-3-3-3-8 0-11l7-7c-1-1-2-3-3-4l0 0c-2-2-4-3-5-5l-7 7c-3 3-9 3-12 0-3-3-3-8 0-11l10-10c-10-20-12-43-3-62 10-24 33-38 59-38 3 0 7 0 10 0 4 1 7 5 7 9-1 5-5 8-9 7-24-3-44 8-52 28 0 0 0 0 0 0-6 14-6 29 0 44l42-42c2-2 4-2 6-2 2 0 4 0 5 2 3 3 3 8 0 11l-44 45c1 2 3 4 4 6 1 1 3 2 4 3l53-52c1-2 3-3 5-3 2 0 4 1 6 3 3 3 3 8 0 11l-51 51c15 8 32 9 47 4 20-8 33-28 30-51 0-4 3-8 8-9 4 0 8 3 9 8 2 30-14 57-42 67z m207-90l-273-234-196 196c-3 3-8 3-12 0-3-4-3-9 0-12l201-201c2-1 4-2 6-2 2 0 4 1 5 2l279 239c4 3 4 8 1 11-3 4-8 4-11 1z m-79 120c26 0 48 21 48 47 0 27-22 48-48 48-26 0-46-21-46-48 0-26 20-47 46-47z m0 79c17 0 31-14 31-32 0-17-14-31-31-31-17 0-30 14-30 31 0 18 13 32 30 32z"/>
<glyph glyph-name="price-tag-5" unicode="&#48;" d="M375 112l-145 0c-6 0-10-5-10-11l0-41c0-6 4-10 10-10l145 0c5 0 10 4 10 10l0 41c0 6-5 11-10 11z m-11-42l-124 0 0 21 124 0z m38 372c-23 0-41-18-41-41 0-23 18-41 41-41 23 0 42 18 42 41 0 23-19 41-42 41z m0-62c-11 0-20 10-20 21 0 12 9 21 20 21 12 0 21-9 21-21 0-11-9-21-21-21z m-61-109c-4 9-9 17-14 22l15 15-15 15-15-15c-9 6-16 8-18 9-11 3-23 1-33-5-24-14-19-42-14-66 5-29 8-48-9-58-7-5-14-7-21-5-18 6-32 34-36 44-2 5-8 8-14 5-5-2-8-8-5-13 0 0 4-11 12-23 4-6 7-11 11-15l-14-14 14-15 16 16c4-2 7-3 10-4 4-2 8-2 12-2 9 0 18 3 27 8 29 20 22 53 17 79-4 24-6 39 4 45 6 4 12 5 17 3 16-5 31-27 35-35 2-5 8-7 13-5 6 3 8 9 5 14z m165 224c-1 5-5 10-11 10 0 0 0 0 0 0l-227-1c-3 0-6-1-7-3l-243-242c-24-25-24-64 0-88l161-161c2-2 5-3 7-3 3 0 6 1 8 3 4 4 4 11 0 15l-161 161c-16 16-16 42 0 58l239 239 213 1 6-220-87-88c-4-4-4-10 0-14 4-4 10-4 14 0l91 91c2 2 3 4 3 7z"/>
<glyph glyph-name="price-tag-6" unicode="&#49;" d="M311 181c-50 0-90-41-90-91 0-49 40-90 90-90 50 0 90 41 90 90 0 50-40 91-90 91z m0-161c-39 0-70 32-70 70 0 39 31 71 70 71 39 0 70-32 70-71 0-38-31-70-70-70z m40 80l-30 0 0 30c0 6-4 10-10 10-6 0-10-4-10-10l0-30-30 0c-6 0-10-4-10-10 0-5 4-10 10-10l30 0 0-30c0-5 4-10 10-10 6 0 10 5 10 10l0 30 30 0c6 0 10 5 10 10 0 6-4 10-10 10z m47 351c-22 0-40-18-40-40 0-22 18-40 40-40 22 0 40 18 40 40 0 22-18 40-40 40z m0-60c-11 0-20 9-20 20 0 11 9 20 20 20 11 0 20-9 20-20 0-11-9-20-20-20z m-59-106c-5 9-10 16-14 22l14 14-14 14-15-15c-9 7-15 9-17 9-11 4-22 2-32-4-23-14-18-41-14-65 6-28 8-46-8-56-7-5-14-6-21-4-17 5-31 32-35 42-2 5-8 8-13 6-5-2-8-8-6-13 0-1 5-12 12-23 4-6 8-10 11-14l-14-14 14-15 16 16c3-2 6-3 9-4 4-1 8-2 12-2 9 0 18 3 26 8 28 19 22 51 17 77-4 23-6 37 4 44 6 3 11 4 17 2 15-4 29-26 33-34 2-5 8-7 13-4 5 2 7 8 5 13z m159 217c0 6-4 10-10 10 0 0 0 0 0 0l-221-1c-2 0-5-1-7-3l-235-235c-23-23-23-62 0-85l156-156c2-2 5-3 7-3 3 0 5 1 7 3 4 4 4 10 0 14l-156 156c-15 16-15 41 0 57l233 232 207 1 5-214-85-85c-4-4-4-10 0-14 4-4 11-4 14 0l89 88c2 2 3 5 3 8z"/>
<glyph glyph-name="sale" unicode="&#50;" d="M127 149c-8 0-14 7-14 15 0 8 6 14 14 14l3 0c6 0 11-5 11-11 0-5 4-9 10-9 5 0 9 4 9 9 0 17-13 30-30 30l-3 0c-18 0-33-15-33-33 0-19 15-33 33-33 8 0 14-7 14-15 0-8-6-14-14-14l-4 0c-6 0-10 5-10 11 0 5-5 9-10 9-5 0-9-4-9-9 0-17 13-30 29-30l4 0c18 0 33 15 33 33 0 19-15 33-33 33z m201-34c-5 0-10-4-10-9l0-4-28 0 0 85c0 6-4 10-10 10-5 0-9-4-9-10l0-94c0-6 4-10 9-10l48 0c5 0 9 4 9 10l0 13c0 5-4 9-9 9z m81 47c5 0 9 4 9 10l0 15c0 6-4 10-9 10l-48 0c-5 0-9-4-9-10l0-94c0-6 4-10 9-10l48 0c5 0 9 4 9 10l0 13c0 5-4 9-9 9-5 0-10-4-10-9l0-4-28 0 0 29 17 0c5 0 10 4 10 9 0 5-5 9-10 9l-17 0 0 29 28 0 0-6c0-6 5-10 10-10z m-196 34c-18 0-33-14-33-33l0-70c0-5 4-9 9-9 6 0 10 4 10 9l0 22 28 0 0-22c0-5 4-9 9-9 6 0 10 4 10 9l0 70c0 19-15 33-33 33z m14-62l-28 0 0 29c0 8 6 14 14 14 8 0 14-6 14-14z m227 134l-42 0-123 161c6 7 10 17 10 27 0 24-19 43-43 43-24 0-43-19-43-43 0-10 4-20 10-27l-123-161-42 0c-32 0-58-26-58-58l0-140c0-32 26-57 58-57l396 0c32 0 58 25 58 57l0 140c0 32-26 58-58 58z m-198 213c13 0 24-11 24-25 0-13-11-24-24-24-13 0-24 11-24 24 0 14 11 25 24 25z m-18-64c6-2 12-3 18-3 6 0 12 1 18 3l114-149-264 0z m255-347c0-21-17-39-39-39l-396 0c-22 0-39 18-39 39l0 140c0 21 17 39 39 39l396 0c22 0 39-18 39-39z"/>
<glyph glyph-name="shopping-bag-2" unicode="&#51;" d="M488 27l-32 345c-1 14-14 25-28 25l-44 0c-5 64-58 115-124 115-65 0-118-51-123-115l-53 0c-15 0-27-11-28-25l-32-345c-1-7 1-14 6-19 5-5 11-8 19-8l414 0c8 0 14 3 19 8 5 5 7 12 6 19z m-113 273c5 0 9 4 9 9l0 15c5-3 9-9 9-15 0-10-8-18-18-18-10 0-17 8-17 18 0 6 3 12 8 15l0-15c0-5 4-9 9-9z m-115 194c56 0 101-42 106-97l-211 0c4 55 50 97 105 97z m-114-194c5 0 8 4 8 9l0 15c6-3 9-9 9-15 0-10-8-18-17-18-10 0-18 8-18 18 0 6 4 12 9 15l0-15c0-5 4-9 9-9z m323-280c-1-2-3-2-6-2l-414 0c-3 0-5 0-6 2-1 1-2 3-2 6l32 344 0 0c1 5 6 10 11 10l53 0 0-37c-15-4-27-18-27-34 0-20 16-35 36-35 19 0 35 15 35 35 0 16-11 30-27 34l0 37 212 0 0-37c-15-4-26-18-26-34 0-20 16-35 35-35 20 0 35 15 35 35 0 16-11 30-26 34l0 37 44 0c5 0 10-5 11-10l32-344c0-3-1-5-2-6z"/>
<glyph glyph-name="shopping-bag-3" unicode="&#52;" d="M375 367c-5 0-8-3-8-9l0-7c0-28-24-52-52-52-28 0-51 24-51 52l0 7c0 6-3 9-8 9-6 0-9-3-9-9l0-7c0-39 31-69 68-69 38 0 69 30 69 69l0 7c0 6-4 9-9 9z m-171-111c0 5-3 9-8 9-5 0-9-4-9-9l0-11c0-18-15-32-34-32-19 0-34 15-34 32l0 11c0 5-3 9-8 9-6 0-9-4-9-9l0-11c0-27 23-49 51-49 28 0 51 22 51 49z m291-210l-27 324c-2 23-20 40-42 40l-42 0 0 34c0 37-31 68-69 68-37 0-68-31-68-68l0-34-43 0c-20 0-37-15-41-35-3 0-6 0-10 0-28 0-51-22-51-48l0-20-33 0c-17 0-32-13-34-31l-18-241c-1-9 2-18 7-25 7-6 16-10 26-10l403 0c12 0 22 5 31 13 8 9 12 21 11 33z m-231 398c0 28 23 51 51 51 28 0 52-23 52-51l0-34-103 0z m-145-117c0 18 15 31 34 31 11 0 20-4 26-11 0 0 1 0 1 0 0-1 0-1 0-1 1-1 1-1 1-1 0 0 1-1 1-2 0 0 0 0 0 0 1-1 1-1 1-1 0 0 0-1 1-1 0 0 0-1 0-1 0-1 1-1 1-1 0-1 0-1 0-1 0-1 0-1 1-1 0-1 0-1 0-2 0 0 0 0 0-1 0 0 0 0 1-1 0 0 0-1 0-1 0 0 0-1 0-1 0 0 0-1 0-1 0-1 0-1 0-1 0-1 0-1 0-2l0-20-68 0z m-82-305c-2 3-3 7-3 11l18 242c1 8 8 15 17 15l166 0c9 0 15-7 16-15l17-190-64 0c-5 0-8-3-8-8 0-5 3-9 8-9l65 0 1-17-49 0c-5 0-8-3-8-8 0-5 3-9 8-9l51 0c0-4-1-9-4-12-4-3-8-5-12-5l-206 0c-5 0-9 2-13 5z m434 3c-5-5-11-8-18-8l-168 0c4 6 6 13 5 20l-4 40c0 0 0 0 0 0 0 1 0 1 0 2l-17 197c-1 18-15 31-33 31l-32 0 0 20c0 1 0 2 0 3 0 0 0 0 0 0 0 1 0 2 0 3 0 0 0 0 0 0-2 16-12 29-25 36 1 13 12 23 25 23l221 0c13 0 24-10 25-23l22-258-63 0c-5 0-8-3-8-9 0-5 3-8 8-8l64 0 2-17-49 0c-5 0-8-4-8-9 0-5 3-8 8-8l50 0 1-16c1-6-1-14-6-19z"/>
<glyph glyph-name="shopping-cart" unicode="&#53;" d="M484 94l-326 0-9 40 287 0c5 0 9 4 11 8l38 163c1 4-1 13-10 13l-77 0c0 2-1 3-3 5l-6 7c1 2 1 4 2 6l10 0c6 0 10 4 10 10l0 59c0 6-5 11-10 11l-10 0c-1 2-1 4-2 6l6 7c2 2 4 4 4 7 0 3-2 5-4 7l-41 42c-5 4-11 4-15 0l-7-7c-2 1-4 2-6 3l0 10c0 5-5 10-10 10l-60 0c-5 0-10-5-10-10l0-10c-2-1-4-2-6-3l-7 7c-4 4-10 4-14 0l-42-42c-4-4-4-10 0-14l6-7c0-2-1-4-2-6l-10 0c-5 0-10-5-10-11l0-59c0-6 5-10 10-10l10 0c1-2 2-4 2-6l-6-7c-2-1-3-3-3-5l-69 0-21 92c-1 4-6 8-10 8l-46 0c-5 0-10-5-10-11 0-6 5-10 10-10l37 0 75-316c1-4 5-8 10-8l41 0c-7-6-11-15-11-25 0-20 17-37 37-37 21 0 37 17 37 37 0 10-4 19-10 25l121 0c-7-6-11-15-11-25 0-20 17-37 37-37 20 0 37 17 37 37 0 10-4 19-11 25l67 0c6 0 10 5 10 11 0 6-4 10-10 10z m-302 263l0 38 6 0c5 0 9 3 10 7 2 6 4 12 7 17 2 4 2 9-2 12l-4 5 27 27 4-5c4-3 9-4 13-1 5 2 11 5 16 6 5 2 8 6 8 10l0 7 38 0 0-7c0-4 3-8 8-10 5-1 11-4 16-6 4-3 9-2 12 1l5 5 27-27-4-5c-4-3-4-8-2-12 3-5 5-11 7-17 1-4 5-7 10-7l6 0 0-38-6 0c-5 0-9-3-10-8-2-6-4-11-7-16-2-5-2-10 2-13l2-2-170 0 2 2c4 3 4 8 2 13-3 5-5 10-7 16-1 5-5 8-10 8z m-72-60l352 0-34-142-284 0z m107-265c-9 0-16 7-16 16 0 9 7 16 16 16 9 0 16-7 16-16 0-9-7-16-16-16z m174 0c-9 0-16 7-16 16 0 9 7 16 16 16 9 0 16-7 16-16 0-9-7-16-16-16z m-105 303c23 0 41 18 41 41 0 22-18 41-41 41-23 0-41-19-41-41 0-23 18-41 41-41z m0 61c11 0 20-9 20-20 0-11-9-21-20-21-11 0-20 10-20 21 0 11 9 20 20 20z"/>
<glyph glyph-name="shopping-cart-2" unicode="&#54;" d="M465 211l36 178-360 0-12 59-109 53-9-19 99-48 50-238 289 0c0 0 29-18 18-41-5-7-13-15-27-15l-287 0 0-21 288 0c19 0 36 10 45 27 19 34-21 65-21 65z m-287 6l-32 151 330 0-31-151z m34-127c-22 0-39-18-39-40 0-21 17-39 39-39 22 0 40 18 40 39 0 22-18 40-40 40z m0-58c-10 0-19 8-19 18 0 11 9 19 19 19 11 0 19-8 19-19 0-10-8-18-19-18z m213 58c-22 0-40-18-40-40 0-21 18-39 40-39 22 0 41 18 40 39 0 22-18 40-40 40z m19-40c0-10-9-18-19-18-11 0-19 8-19 18 0 11 8 19 19 19 10 0 20-8 19-19z"/>
<glyph glyph-name="shopping-cart-3" unicode="&#55;" d="M34 213c0-4 4-8 9-8l30 0c4 0 8 4 8 8 0 5-4 9-8 9l-30 0c-5 0-9-4-9-9z m34 52c0 4-4 8-8 8l-51 0c-5 0-9-4-9-8 0-5 4-9 9-9l51 0c4 0 8 4 8 9z m69 226c1-12 7-60 0-88-1-4 1-9 6-10 1 0 1 0 2 0 4 0 7 2 8 6 5 17 5 41 4 60 13-30 14-58 14-58 0-5 3-8 8-8l0 0c5 0 9 3 9 8 0 2-1 35-18 70 34-27 35-68 35-70 0-5 4-8 8-8 5 0 9 3 9 8 0 1-1 73-72 101l-7 7c-4 4-9 4-12 0-4-3-4-8 0-12z m298-64l43 0 0-26c0-5 4-8 8-8 5 0 9 3 9 8l0 26c0 9-8 17-17 17l-43 0c-5 0-8-4-8-9 0-5 3-8 8-8z m-188-34c5 0 9 3 9 8l0 60 102 0 0-60c0-5 4-8 9-8 5 0 8 3 8 8l0 60 18 0 0-60c0-5 3-8 8-8 5 0 9 3 9 8l0 60c0 9-8 17-17 17l-137 0c-9 0-17-8-17-17l0-60c0-5 4-8 8-8z m163-325c-19 0-35-15-35-34 0-19 16-34 35-34 18 0 34 15 34 34 0 19-16 34-34 34z m0-51c-10 0-17 8-17 17 0 10 7 17 17 17 9 0 17-7 17-17 0-9-8-17-17-17z m25 85l-239 0c-13 0-22-16-24-21-3-5-1-10 3-12 2 0 3-1 4-1 3 0 6 2 8 5 3 6 8 12 9 12l239 0c5 0 9 4 9 9 0 5-4 8-9 8z m75 270c-2 2-4 3-7 3l-384 0c-4 0-8-3-8-8 0-5 4-9 8-9l374 0c-12-67-34-183-40-202-7-19-26-19-26-19l-265 0c-17 0-24 8-26 11l-51 297c0 1 0 1 0 1-1 4-11 32-34 32l-25 0c-11 0-26-7-26-26 0-19 15-25 26-25l17 0c4 0 8 3 8 8 0 5-4 9-8 9l-17 0c-4 0-9 1-9 8 0 7 5 9 9 9l25 0c9 0 16-14 18-19l51-298c0-1 0-2 0-3 1-1 12-22 42-22l265 0c11 0 34 7 42 32 9 26 41 207 43 214 0 3 0 5-2 7z m-356-304c-19 0-35-15-35-34 0-19 16-34 35-34 18 0 34 15 34 34 0 19-16 34-34 34z m0-51c-10 0-17 8-17 17 0 10 7 17 17 17 9 0 17-7 17-17 0-9-8-17-17-17z m-28 265c0-5 4-9 8-9l60 0 5-51-54 0c-5 0-8-4-8-9 0-4 3-8 8-8l55 0 5-44c0-4 4-7 8-7 1 0 1 0 1 0 5 0 8 4 8 9l-4 42 72 0 0-43c0-5 4-8 9-8 4 0 8 3 8 8l0 43 73 0-4-42c-1-5 2-9 7-9 0 0 1 0 1 0 4 0 8 3 8 7l5 44 42 0c5 0 9 4 9 8 0 5-4 9-9 9l-40 0 5 51 48 0c5 0 9 4 9 9 0 4-4 8-9 8l-47 0 5 42c0 5-3 9-8 9-5 1-9-3-9-7l-5-44-81 0 0 43c0 5-4 8-8 8-5 0-9-3-9-8l0-43-81 0-4 44c-1 4-5 8-10 7-4 0-8-4-7-9l4-42-58 0c-4 0-8-4-8-8z m181-9l80 0-6-51-74 0z m-17 0l0-51-74 0-5 51z m-205-102l-59 0c-5 0-9-4-9-9 0-5 4-8 9-8l59 0c5 0 9 3 9 8 0 5-4 9-9 9z"/>
<glyph glyph-name="trolley" unicode="&#56;" d="M506 133c-1 6-7 10-13 8l-248-62c-2 41-35 74-76 74-1 0-1-1-2-1l-64 308c0 3-2 5-5 7l-76 44c-5 3-12 1-15-4-3-6-1-12 4-15l72-41 62-302c-30-10-52-39-52-73 0-42 34-76 76-76 35 0 65 24 73 56l256 64c6 2 10 8 8 13z m-337-111c-30 0-55 24-55 54 0 30 25 55 55 55 30 0 54-25 54-55 0-30-24-54-54-54z m272 189l-41 153c-1 3-3 5-5 7-3 1-6 2-9 1l-23-6-24 90c-2 6-8 10-14 8l-123-33c-3-1-5-3-7-5-1-3-2-6-1-8l24-91-19-5c-6-2-10-8-8-14l41-153c1-2 3-5 5-6 2-1 4-2 6-2 0 0 1 0 2 1l188 50c6 2 9 8 8 13z m-223 202l103 27 21-80-103-27z m32-241l-35 131 167 45 35-132z"/>
<glyph glyph-name="truck-1" unicode="&#57;" d="M233 311c0 0 0 0 0 1 0 0-1 1-1 1l-35 47c-3 4-8 4-11 2-4-3-5-8-2-11l26-35-102 0c-4 0-8-3-8-8 0-4 4-8 8-8l102 0-26-34c-3-4-2-9 2-11 1-1 3-2 5-2 2 0 4 1 6 3l35 47c0 1 1 1 1 2 0 0 0 0 0 1 1 1 1 1 1 2 0 1 0 2-1 3 0 0 0 0 0 0z m276-131l-37 148c-3 14-16 24-31 24l-103 0 0 72c0 13-11 24-24 24l-288 0c-13 0-24-11-24-24l0-240c0-13 11-24 24-24l49 0c-10-10-17-24-17-40 0-31 25-56 56-56 31 0 56 25 56 56 0 16-6 30-17 40l218 0c-10-10-17-24-17-40 0-31 25-56 56-56 31 0 56 25 56 56 0 16-6 30-17 40l45 0c10 0 18 10 15 20z m-68 156c8 0 14-5 16-12l13-55-132 0 0 67z m-287-216c0-22-18-40-40-40-22 0-40 18-40 40 0 22 18 40 40 40 22 0 40-18 40-40z m168 56l-296 0c-4 0-8 4-8 8l0 240c0 4 4 8 8 8l288 0c5 0 8-4 8-8z m128-56c0-22-18-40-40-40-22 0-40 18-40 40 0 22 18 40 40 40 22 0 40-18 40-40z m-112 56l0 77 136 0 20-77z m-16-40l-128 0c-4 0-8-4-8-8 0-4 4-8 8-8l128 0c5 0 8 4 8 8 0 4-3 8-8 8z"/>
<glyph glyph-name="truck-2" unicode="&#33;" d="M504 318l-74 82c-6 6-13 9-21 9l-85 0 0 18c0 19-15 33-33 33l-258 0c-19 0-33-14-33-33l0-295c0-16 14-29 30-29l13 0c4-29 29-51 59-51 31 0 55 22 59 51l189 0c4-29 29-51 59-51 30 0 55 22 59 51l44 0 0 196c0 7-3 14-8 19z m-13-11c2-2 3-5 3-8l0-26-128 0 0 85 78 0z m-474-25l119 0c5 0 9 3 9 8 0 5-4 9-9 9l-119 0 0 25 85 0c5 0 9 4 9 9 0 5-4 8-9 8l-85 0 0 86c0 10 7 16 16 16l258 0c9 0 16-7 16-16l0-205-290 0z m85-213c-24 0-42 18-42 42 0 24 18 43 42 43 24 0 43-19 43-43 0-24-19-42-43-42z m205 51l-146 0c-4 27-25 48-53 51 0 0-1 0-1 0 0 0-1 0-2 0-1 0-2 0-3 0-1 0-2 0-3 0 0 0-1 0-2 0 0 0 0 0 0 0-28-3-50-24-54-51l-13 0c-7 0-13 6-13 12l0 73 290 0z m102-51c-24 0-43 18-43 42 0 24 19 43 43 43 24 0 43-19 43-43 0-24-19-42-43-42z m59 51c-4 27-26 48-53 51-1 0-1 0-1 0-1 0-1 0-2 0-1 0-2 0-3 0-1 0-2 0-3 0-1 0-1 0-2 0 0 0 0 0-1 0-27-3-49-24-53-51l-26 0 0 272 85 0c2 0 6-1 8-3l13-14-66 0c-8 0-15-7-15-14l0-91c0-7 7-14 15-14l130 0 0-43-42 0c-6 0-9-3-9-8 0-5 3-9 9-9l42 0 0-76z m-366 8c-9 0-17-7-17-17 0-9 8-17 17-17 10 0 17 8 17 17 0 10-7 17-17 17z m307 0c-9 0-17-7-17-17 0-9 8-17 17-17 9 0 17 8 17 17 0 10-8 17-17 17z"/>
<glyph glyph-name="truck-3" unicode="&#34;" d="M509 211l-75 87c-2 2-5 3-8 3l-66 0 0 61c0 6-4 10-10 10l-147 0c-10 46-51 81-100 81-57 0-103-47-103-103 0-23 7-43 19-60l0-152-9 0c-5 0-10-4-10-10 0-6 5-10 10-10l9 0 0-12c0-6 5-10 10-10l20 0c5-21 24-37 46-37 22 0 40 16 45 37l239 0c5-21 23-37 45-37 22 0 41 16 46 37l32 0c5 0 10 4 10 10l0 98c0 3-1 5-3 7z m-303 141l134 0 0-171-300 0 0 87c17-13 39-21 63-21 57 0 103 46 103 103 0 0 0 1 0 2z m-186-2c0 45 37 82 83 82 46 0 83-37 83-82 0-46-37-83-83-83-46 0-83 37-83 83z m75-270c-15 0-26 12-26 26 0 14 11 26 26 26 14 0 26-12 26-26 0-14-12-26-26-26z m245 36l-200 0c-5 21-23 36-45 36-22 0-41-15-46-36l-9 0 0 45 300 0 0-45z m96 148l44-50-44 0z m-12-184c-14 0-26 12-26 26 0 14 12 26 26 26 15 0 26-12 26-26 0-14-11-26-26-26z m68 36l-22 0c-5 21-24 36-46 36-22 0-40-15-45-36l-19 0 0 165 55 0 0-77c0-6 5-11 10-11l67 0z m-177 97l-86 0c-5 0-10-5-10-10 0-6 5-11 10-11l86 0c6 0 10 5 10 11 0 5-4 10-10 10z m-117 0l-6 0c-6 0-10-5-10-10 0-6 4-11 10-11l6 0c5 0 10 5 10 11 0 5-5 10-10 10z m-65 121l-20 20 0 57c0 5-4 10-10 10-6 0-10-5-10-10l0-61c0-3 1-6 3-8l22-22c2-2 5-3 7-3 3 0 6 1 8 3 4 4 4 10 0 14z"/>
<glyph glyph-name="wallet" unicode="&#35;" d="M503 321l-58 0 28 28c1 2 2 4 2 7 0 2-1 4-2 6l-124 124c-4 4-10 4-13 0l-20-19c0 0 0 0 0 0l-68 39c-2 1-5 2-7 1-3-1-5-2-6-4l-103-180c-1 0-1-1-1-2l-122 0c-5 0-9-4-9-9l0-298c0-5 4-9 9-9l494 0c5 0 9 4 9 9l0 298c0 5-4 9-9 9z m-161 145l111-110-34-35-222 0z m-95 19l56-32-132-132-19 0z m246-359l-121 0c-15 0-28 12-28 28l0 37c0 15 13 28 28 28l121 0z m0 111l-121 0c-25 0-46-20-46-46l0-37c0-26 21-47 46-47l121 0 0-84-474 0 0 280 400 0c1-1 2-1 3-1 1 0 2 0 3 1l68 0z m-93-65c0-10-8-18-18-18-11 0-19 8-19 18 0 10 8 19 19 19 10 0 18-9 18-19z"/>
<glyph glyph-name="hat" unicode="&#97;" d="M470 353c-10 13-22 23-36 32-2-11-4-21-8-31-9-22-24-41-42-55-8-6-17-11-27-16-1 0-3 0-3 2 0 1 1 2 2 3 4 3 8 6 11 10 8 8 14 17 20 27 18 30 12 67 12 70-1 2-1 4-2 6 0 0 0 0 0 0 0 2-1 3-1 5 0 1 0 1 0 1-18 62-75 105-140 105-68 0-126-46-141-111-29-8-55-25-73-48-22-26-33-59-33-92 0-30 9-59 26-83 15-21 35-38 58-49l0-115c0-8 6-14 14-14l298 0c8 0 14 6 14 14l0 39-147 0c-11 0-20 9-20 20 0 11 9 21 20 21l147 0 0 35c23 11 43 28 58 49 17 24 26 53 26 83 0 33-11 66-33 92z"/>
<glyph glyph-name="plate" unicode="&#100;" d="M264 435c-93 0-169-76-169-169 0-94 76-170 169-170 94 0 170 76 170 170 0 93-76 169-170 169z m0-298c-71 0-128 58-128 129 0 70 57 128 128 128 71 0 129-58 129-128 0-71-58-129-129-129z m0 223c-52 0-94-43-94-94 0-52 42-95 94-95 52 0 94 43 94 95 0 51-42 94-94 94z m237-109l0 206c0 2-1 4-3 5-2 0-4 0-5-2-26-34-40-75-40-118l0-75c0-9 7-16 16-16l7 0c-7-66-11-159-11-170 0-17 10-31 23-31 13 0 24 14 24 31 0 11-4 104-11 170z m-433 41c13 8 22 22 22 39l-6 105c-1 4-4 8-8 8-4 0-8-4-8-8l5-85c0-5-4-9-9-9-5 0-9 4-9 9l-2 84c0 5-3 9-8 9-4 0-8-4-8-9l-2-84c0-5-4-9-9-9-5 0-8 4-8 9l4 85c0 4-4 8-8 8-4 0-7-4-8-8l-6-105c0-17 9-31 22-39 8-5 13-15 12-24-7-67-12-175-12-187 0-17 10-31 23-31 13 0 24 14 24 31 0 12-5 120-13 187-1 9 4 19 12 24z"/>
<glyph glyph-name="map" unicode="&#102;" d="M240 512c-70 0-176-32-176-160 0-64 141-288 176-352 35 64 176 288 176 352 0 128-106 160-176 160m0-216c-31 0-56 25-56 56 0 31 25 56 56 56 31 0 56-25 56-56 0-31-25-56-56-56"/>
<glyph glyph-name="mail" unicode="&#103;" d="M269 232l189 193c-3 1-7 2-10 2l-384 0c-3 0-6-1-10-2l190-193c6-6 18-6 25 0z m25-26c-10-10-24-16-38-16-14 0-28 5-38 16l-189 192c0-3 0-5 0-8l0-268c0-20 16-37 35-37l384 0c19 0 35 17 35 37l0 268c0 3 0 5 0 8z"/>
<glyph glyph-name="phone" unicode="&#104;" d="M457 158c0-5-1-12-3-20-2-9-4-15-6-20-4-10-15-20-35-30-17-10-35-15-53-15-5 0-10 0-15 1-5 1-10 2-16 4-6 1-11 3-14 4-3 1-8 3-16 6-7 3-12 4-14 5-18 7-35 14-50 24-24 15-49 35-75 61-26 26-47 51-62 76-9 14-17 31-23 50-1 1-3 6-6 14-2 7-4 13-5 16-1 3-3 7-5 13-1 6-2 12-3 17-1 4-1 9-1 15 0 17 5 35 14 53 11 19 21 31 31 35 4 2 11 4 19 6 9 1 15 2 20 2 3 0 5 0 6 0 4-2 9-9 16-22 2-4 5-9 8-16 4-6 7-12 10-18 3-5 6-10 9-15 1-1 2-3 5-7 3-4 5-8 6-10 1-3 2-6 2-8 0-4-3-9-8-15-5-5-11-11-18-15-6-5-12-10-17-16-6-5-9-9-9-13 0-1 1-4 2-6 1-3 2-5 2-6 1-1 2-4 4-7 2-3 3-5 4-5 14-26 31-49 49-67 19-19 41-36 67-50 1 0 3-1 6-3 3-2 5-4 7-4 1-1 3-2 6-3 2-1 4-1 6-1 3 0 8 2 13 8 5 5 11 11 15 18 5 6 10 12 16 17 6 6 10 8 14 8 3 0 6 0 8-2 3-1 7-3 11-6 4-2 6-4 7-5 4-3 10-6 15-9 5-3 11-6 18-10 7-3 12-6 16-8 13-7 20-12 21-15 1-2 1-4 1-6z"/>
<glyph glyph-name="printer" unicode="&#107;" d="M441 421l-28 0c0-1 0-2 0-3l0 9c-1 23-20 42-43 42l-228 0c-23 0-42-19-42-42l0-6-29 0c-23 0-43-19-43-42l0-248c0-23 20-42 43-42l29 0 0-4c0-23 19-42 42-42l228 0c23 0 43 19 43 42l0 4 28 0c23 0 43 19 43 42l0 248c0 23-19 42-43 42z m-57-336c0-8-6-13-14-13l-228 0c-7 0-14 5-14 13l0 164c6 4 14 6 21 6l214 0c8 0 15-2 21-6z m0 297c-4-2-9-3-14-3l-227 0c-5 0-10 1-15 3l0 45c0 8 7 13 14 13l228 0c8 0 14-5 14-13z"/>
<glyph glyph-name="work-team" unicode="&#110;" d="M172 411c0-47 38-84 84-84 46 0 84 37 84 84 0 46-38 84-84 84-46 0-84-38-84-84z m150 0c0-37-29-67-66-67-37 0-66 30-66 67 0 36 29 66 66 66 37 0 66-30 66-66z m-225 4c-38 0-69-31-69-69 0-38 31-69 69-69 39 0 70 31 70 69 0 38-31 69-70 69z m0-121c-28 0-51 23-51 52 0 28 23 51 51 51 29 0 52-23 52-51 0-29-23-52-52-52z m318-17c38 0 69 31 69 69 0 38-31 69-69 69-39 0-70-31-70-69 0-38 31-69 70-69z m0 120c28 0 51-23 51-51 0-29-23-52-51-52-29 0-52 23-52 52 0 28 23 51 52 51z m30-133l-61 0c-6 0-11-1-17-2-13 27-41 45-73 45l-76 0c-32 0-59-19-73-45-5 1-11 2-17 2l-61 0c-37 0-67-30-67-67l0-171c0-5 4-9 9-9 5 0 9 4 9 9l0 171c0 27 22 49 49 49l61 0c4 0 7 0 11-1-2-6-3-13-3-20l0-199c0-5 4-9 9-9 5 0 9 4 9 9l0 199c0 8 1 15 4 22 0 0 0 0 0 1 0 0 1 0 1 1 8 22 29 38 54 40l0-32c0-5 4-9 9-9l9 0-24-175c-1-3 1-6 3-8l41-32c1-2 3-2 5-2 2 0 4 0 6 2l40 32c3 2 4 5 4 8l-24 175 9 0c4 0 8 4 8 9l0 32c25-2 46-18 55-40 0 0 0-1 0-1 0 0 0-1 1-1 2-7 4-14 4-22l0-199c0-5 3-9 8-9 5 0 9 4 9 9l0 199c0 7-1 14-2 20 3 1 6 1 10 1l61 0c27 0 49-22 49-49l0-171c0-5 4-9 9-9 5 0 9 4 9 9l0 171c0 37-30 67-67 67z m-163 25l0-23-51 0 0 23z m5-213l-31-25-31 25 24 172 15 0z"/>
<glyph glyph-name="floppy-o" unicode="&#111;" d="M146 73l220 0 0 110-220 0z m256 0l37 0 0 256c0 3-1 6-3 11-2 5-4 8-6 10l-80 80c-2 2-5 4-10 6-4 2-8 3-11 3l0-119c0-8-3-14-8-19-5-6-12-8-19-8l-165 0c-7 0-14 2-19 8-6 5-8 11-8 19l0 119-37 0 0-366 37 0 0 119c0 8 2 14 8 19 5 6 12 8 19 8l238 0c7 0 14-2 19-8 6-5 8-11 8-19z m-109 265l0 92c0 2-1 4-3 6-2 2-4 3-7 3l-54 0c-3 0-5-1-7-3-2-2-3-4-3-6l0-92c0-2 1-4 3-6 2-2 4-3 7-3l54 0c3 0 5 1 7 3 2 2 3 4 3 6z m182-9l0-265c0-8-2-14-8-19-5-6-11-8-19-8l-384 0c-8 0-14 2-19 8-6 5-8 11-8 19l0 384c0 8 2 14 8 19 5 6 11 8 19 8l265 0c8 0 16-1 25-5 9-4 17-9 22-14l80-80c5-5 10-13 14-22 4-9 5-17 5-25z"/>
<glyph glyph-name="line-chart" unicode="&#112;" d="M465 438c-25 0-46-21-46-47 0-15 7-28 18-36l-115-202c-8 9-20 15-33 15-10 0-18-3-25-8l-86 112c5 7 8 16 8 26 0 26-21 46-46 46-26 0-47-20-47-46 0-10 3-19 8-26l-42-51c-4 2-8 2-12 2-26 0-47-20-47-46 0-26 21-47 47-47 25 0 46 21 46 47 0 14-7 27-17 36l39 46c7-5 15-8 25-8 9 0 17 3 24 8l86-112c-5-7-8-16-8-26 0-26 21-47 47-47 25 0 46 21 46 47 0 5-1 9-2 13 0 0 1 1 1 1l119 211c4-1 8-2 12-2 26 0 47 21 47 47 0 26-21 47-47 47z m-418-289c-16 0-28 12-28 28 0 15 12 28 28 28 15 0 27-13 27-28 0-16-12-28-27-28z m93 121c-16 0-28 12-28 28 0 15 12 28 28 28 15 0 28-13 28-28 0-16-13-28-28-28z m149-177c-16 0-28 13-28 28 0 15 12 28 28 28 15 0 28-13 28-28 0-15-13-28-28-28z m176 270c-15 0-27 13-27 28 0 15 12 28 27 28 16 0 28-13 28-28 0-15-12-28-28-28z"/>
<glyph glyph-name="page" unicode="&#114;" d="M362 512l-293 0 0-510 372 0 0 417z m-4-21l61-72-61 0z m67-473l-340 0 0 477 256 0 0-92 84 0z m-105 381l0 13-212 0 0-13z m0-36l0 13-212 0 0-13z m0-35l0 12-212 0 0-12z m-208-264l273 0 0-13-273 0z m23 164l37 0 0-133-37 0z m119 0l37 0 0-133-37 0z m60 35l37 0 0-168-37 0z m-120 15l37 0 0-183-37 0z"/>
<glyph glyph-name="bell-o" unicode="&#115;" d="M261 27c0 3-2 5-5 5-11 0-21 4-29 12-8 8-12 18-12 29 0 3-2 5-5 5-3 0-4-2-4-5 0-14 5-26 14-35 10-10 22-15 36-15 3 0 5 1 5 4z m-191 83l372 0c-51 57-76 136-76 237 0 10-3 20-7 30-5 11-11 21-20 30-8 9-20 17-35 23-14 6-30 9-48 9-18 0-34-3-48-9-15-6-27-14-35-23-9-9-15-19-20-30-4-10-7-20-7-30 0-101-25-180-76-237z m424 0c0-10-4-19-11-26-7-7-16-11-26-11l-128 0c0-20-7-37-21-52-15-14-32-21-52-21-20 0-37 7-52 21-14 15-21 32-21 52l-128 0c-10 0-19 4-26 11-7 7-11 16-11 26 10 8 18 16 26 25 8 9 16 20 25 34 8 14 15 29 21 45 6 16 10 36 14 59 4 23 6 48 6 74 0 29 11 56 33 81 22 25 52 40 88 45-2 4-2 8-2 12 0 7 2 14 8 19 5 5 11 8 19 8 8 0 14-3 19-8 6-5 8-12 8-19 0-4 0-8-2-12 36-5 66-20 88-45 22-25 33-52 33-81 0-26 2-51 6-74 4-23 8-43 14-59 6-16 13-31 21-45 9-14 17-25 25-34 8-9 16-17 26-25z"/>
<glyph glyph-name="bell" unicode="&#116;" d="M261 27c0 3-2 5-5 5-11 0-21 4-29 12-8 8-12 18-12 29 0 3-2 5-5 5-3 0-4-2-4-5 0-14 5-26 14-35 10-10 22-15 36-15 3 0 5 1 5 4z m233 83c0-10-4-19-11-26-7-7-16-11-26-11l-128 0c0-20-7-37-21-52-15-14-32-21-52-21-20 0-37 7-52 21-14 15-21 32-21 52l-128 0c-10 0-19 4-26 11-7 7-11 16-11 26 10 8 18 16 26 25 8 9 16 20 25 34 8 14 15 29 21 45 6 16 10 36 14 59 4 23 6 48 6 74 0 29 11 56 33 81 22 25 52 40 88 45-2 4-2 8-2 12 0 7 2 14 8 19 5 5 11 8 19 8 8 0 14-3 19-8 6-5 8-12 8-19 0-4 0-8-2-12 36-5 66-20 88-45 22-25 33-52 33-81 0-26 2-51 6-74 4-23 8-43 14-59 6-16 13-31 21-45 9-14 17-25 25-34 8-9 16-17 26-25z"/>
<glyph glyph-name="envelope" unicode="&#117;" d="M489 436l-466 0c-3 0-6-1-8-2-2 0-4-1-4-2-7-4-11-11-11-19l0-314c0-13 10-23 23-23l466 0c13 0 23 10 23 23l0 314c0 13-10 23-23 23z m-331-199c-4 3-9 3-12-1l-131-130 0 307c0 2 1 3 2 5 6-7 17-19 38-40l154-162c13-14 30-21 48-21 18 0 36 7 48 21l147 154c28 29 38 42 42 48 2-1 3-3 3-5l0-309-132 131c-3 3-8 3-12 0-3-3-3-9 1-12l131-132-461 0c0 1 0 1 1 1l132 133c4 3 4 8 1 12z m269 184c22 0 39-1 49-2-7-8-19-22-35-38l-147-155c-20-21-54-21-74 0l-154 163c-12 12-23 23-30 32 11 0 26 0 44 0z m-279-87c23 0 41 18 41 41 0 23-18 41-41 41-23 0-41-18-41-41 0-23 18-41 41-41z m0 67c14 0 26-12 26-26 0-14-12-26-26-26-14 0-26 12-26 26 0 14 12 26 26 26z m55-14l75 0c4 0 7 3 7 7 0 4-3 8-7 8l-75 0c-4 0-7-4-7-8 0-4 3-7 7-7z m13-14c0-4 4-8 8-8l85 0c4 0 8 4 8 8 0 4-4 7-8 7l-85 0c-4 0-8-3-8-7z m69-17l-81 0c-4 0-7-3-7-7 0-4 3-7 7-7l81 0c4 0 7 3 7 7 0 4-3 7-7 7z"/>
<glyph glyph-name="email-mail-streamline" unicode="&#118;" d="M469 427l-426 0c-24 0-43-19-43-43l0-256c0-24 19-43 43-43l426 0c24 0 43 19 43 43l0 256c0 24-19 43-43 43z m22-299c0-12-10-21-22-21l-426 0c-12 0-22 9-22 21l0 256c0 12 10 21 22 21l426 0c12 0 22-9 22-21z m-45 208c-3 5-10 7-14 4l-176-114-176 114c-4 3-11 1-14-4-3-4-2-11 3-14l187-121 187 121c5 3 6 10 3 14z m-292-103l-96-64c-5-3-6-10-3-15 2-3 6-5 9-5 2 0 4 1 6 2l96 64c5 3 6 10 3 15-3 5-10 6-15 3z m204 0c-5 3-12 2-15-3-3-5-2-12 3-15l96-64c2-1 4-2 6-2 3 0 7 2 9 5 3 5 2 12-3 15z"/>
<glyph glyph-name="mail-2" unicode="&#36;" d="M0 448l0-384 512 0 0 384z m450-32l-194-156-194 156z m-418-320l0 303 224-179 224 179 0-303z"/>
<glyph glyph-name="ios-email-outline" unicode="&#37;" d="M64 384l0-256 384 0 0 256z m192-140l-163 124 326 0z m-176-100l0 214 115-88-68-77 2-2 79 70 48-37 48 37 79-70 2 2-68 77 115 88 0-214z"/>
<glyph glyph-name="envelope-o" unicode="&#38;" d="M475 82l0 220c-6-7-12-13-19-19-51-39-92-72-122-97-10-8-18-14-24-19-6-4-14-9-24-14-11-4-21-7-30-7l0 0c-9 0-19 3-30 7-10 5-18 10-24 14-6 5-14 11-24 19-30 25-71 58-122 97-7 6-13 12-19 19l0-220c0-2 0-4 2-6 2-2 4-3 7-3l420 0c3 0 5 1 7 3 2 2 2 4 2 6z m0 301l0 7 0 3-1 4-1 2-3 3-4 0-420 0c-3 0-5-1-7-2-2-2-2-4-2-7 0-32 14-59 42-81 36-29 75-59 114-91 1-1 5-3 10-8 6-5 10-8 13-11 4-2 8-5 13-9 5-3 10-6 14-8 5-1 9-2 13-2l0 0c4 0 8 1 13 2 4 2 9 5 14 8 5 4 9 7 13 9 3 3 7 6 13 11 5 5 9 7 10 8 39 32 78 62 114 91 11 8 20 19 29 33 9 14 13 26 13 38z m37 10l0-311c0-12-4-23-13-32-9-9-20-13-33-13l-420 0c-13 0-24 4-33 13-9 9-13 20-13 32l0 311c0 13 4 23 13 32 9 9 20 14 33 14l420 0c13 0 24-5 33-14 9-9 13-19 13-32z"/>
<glyph glyph-name="cancel" unicode="&#39;" d="M367 176c6-6 9-13 9-22 0-8-3-16-9-22-6-5-13-8-22-8-8 0-16 3-22 8 0 0-68 78-68 78 0 0-67-78-67-78-6-5-14-8-22-8-9 0-16 3-22 8-6 6-8 14-8 22 0 9 2 16 8 22 0 0 71 80 71 80 0 0-71 81-71 81-6 6-8 13-8 22 0 8 2 16 8 22 6 5 13 8 22 8 8 0 16-3 22-8 0 0 67-78 67-78 0 0 68 78 68 78 6 5 14 8 22 8 9 0 16-3 22-8 6-6 9-14 9-22 0-9-3-16-9-22 0 0-71-81-71-81 0 0 71-80 71-80"/>
<glyph glyph-name="close-1" unicode="&#40;" d="M430 36l-404 404c-11 11-11 31 0 41l7 8c11 10 31 10 41 0l405-405c10-10 10-30 0-40l-8-8c-10-13-28-13-41 0z m49 402l-405-405c-10-10-30-10-41 0l-7 8c-11 10-11 31 0 41l404 404c10 11 31 11 41 0l8-7c10-11 10-28 0-41z"/>
</font>
</defs>
</svg>
