<?xml version="1.0" encoding="UTF-8" standalone="no"?>
<svg
   xmlns:dc="http://purl.org/dc/elements/1.1/"
   xmlns:cc="http://creativecommons.org/ns#"
   xmlns:rdf="http://www.w3.org/1999/02/22-rdf-syntax-ns#"
   xmlns:svg="http://www.w3.org/2000/svg"
   xmlns="http://www.w3.org/2000/svg"
   version="1.1"
   id="svg2"
   viewBox="0 0 499.99999 371.96256"
   height="132.1689mm"
   width="141.11111mm">
  <defs
     id="defs4" />
  <metadata
     id="metadata7">
    <rdf:RDF>
      <cc:Work
         rdf:about="">
        <dc:format>image/svg+xml</dc:format>
        <dc:type
           rdf:resource="http://purl.org/dc/dcmitype/StillImage" />
        <dc:title></dc:title>
        <cc:license
           rdf:resource="http://creativecommons.org/publicdomain/zero/1.0/" />
      </cc:Work>
      <cc:License
         rdf:about="http://creativecommons.org/publicdomain/zero/1.0/">
        <cc:permits
           rdf:resource="http://creativecommons.org/ns#Reproduction" />
        <cc:permits
           rdf:resource="http://creativecommons.org/ns#Distribution" />
        <cc:permits
           rdf:resource="http://creativecommons.org/ns#DerivativeWorks" />
      </cc:License>
    </rdf:RDF>
  </metadata>
  <g
     transform="translate(-185.97307,-298.1002)"
     id="layer1">
    <g
       id="g4210"
       transform="matrix(6.0233424,0,0,6.0233424,-1138.7608,-480.22535)">
      <path
         id="path4212"
         d="m 298.28837,169.28553 c -5.07416,20.35243 -25.68778,32.73865 -46.04259,27.6633 -20.34649,-5.07416 -32.73271,-25.68896 -27.65618,-46.04021 5.07179,-20.35481 25.68541,-32.74221 46.03428,-27.66806 20.35362,5.07416 32.73865,25.69135 27.66449,46.04497 z"
         style="opacity:1;fill:#f7931a" />
      <path
         id="rect4276"
         d="m 302.94374,121.21996 -71.73603,38.87501 21.58667,0 -32.86103,38.87501 71.7355,-38.87501 -21.58614,0 32.86103,-38.87501 z"
         style="opacity:0.5;fill:#f7f700;fill-opacity:1" />
      <path
         id="path4214"
         d="m 278.18288,154.68278 c 0.75626,-5.05517 -3.0927,-7.7727 -8.35562,-9.58558 l 1.70721,-6.84786 -4.16831,-1.03881 -1.6621,6.6674 c -1.0958,-0.27306 -2.22128,-0.53069 -3.33964,-0.78594 l 1.67397,-6.71133 -4.16593,-1.03881 -1.70841,6.84549 c -0.90703,-0.20658 -1.79744,-0.41078 -2.66173,-0.62567 l 0.005,-0.0214 -5.74849,-1.43534 -1.10886,4.45206 c 0,0 3.09269,0.70876 3.0274,0.75269 1.68822,0.42146 1.99333,1.53863 1.94228,2.4243 l -1.94466,7.80119 c 0.11635,0.0297 0.26713,0.0724 0.43334,0.1389 -0.13891,-0.0344 -0.28731,-0.0724 -0.44046,-0.10922 l -2.72585,10.92832 c -0.20657,0.51287 -0.73013,1.28219 -1.91023,0.99013 0.0416,0.0606 -3.02977,-0.75625 -3.02977,-0.75625 l -2.06932,4.77142 5.42439,1.35223 c 1.00913,0.25288 1.99808,0.51763 2.9716,0.76695 l -1.72502,6.92621 4.16356,1.03881 1.7084,-6.8526 c 1.13736,0.30867 2.24147,0.5936 3.32183,0.86192 l -1.70246,6.82055 4.16831,1.03881 1.72502,-6.91315 c 7.10786,1.34511 12.45271,0.80255 14.70248,-5.62622 1.81288,-5.17626 -0.0902,-8.1621 -3.82996,-10.10914 2.72347,-0.62803 4.77498,-2.41954 5.32229,-6.12009 z m -9.52384,13.35498 c -1.28813,5.17626 -10.00348,2.378 -12.82905,1.67635 l 2.28895,-9.17599 c 2.82557,0.70521 11.8864,2.10138 10.5401,7.49964 z m 1.28931,-13.42978 c -1.17534,4.7085 -8.42923,2.31626 -10.78229,1.72978 l 2.07526,-8.32238 c 2.35306,0.58648 9.93105,1.68109 8.70703,6.5926 z"
         style="fill:#ffffff" />
    </g>
  </g>
</svg>
